<svg width="75" height="61" viewBox="0 0 75 61" fill="none" xmlns="http://www.w3.org/2000/svg">
<path d="M0 25.398V50.3243C0 52.0502 1.44137 53.4493 3.21936 53.4493H60.7805C62.5585 53.4493 63.9999 52.0502 63.9999 50.3243V25.398H0Z" fill="#868686"/>
<path d="M58.8896 25.398V50.3243C58.8896 52.0502 57.4482 53.4493 55.6702 53.4493H60.7806C62.5585 53.4493 63.9999 52.0502 63.9999 50.3243V25.398H58.8896Z" fill="#9A9A9A"/>
<path d="M48.4682 15.9999H15.5321C14.3102 15.9999 13.3955 14.9111 13.6395 13.75L15.7313 3.80011C16.1943 1.59812 18.2107 0 20.526 0H43.4746C45.7899 0 47.8062 1.59824 48.2692 3.80011L50.3611 13.75C50.6051 14.9121 49.689 15.9999 48.4682 15.9999ZM17.8977 12.25H46.1026L44.4837 4.54998C44.3862 4.08649 43.9617 3.74999 43.4744 3.74999H20.5257C20.0383 3.74999 19.6138 4.08649 19.5163 4.54998L17.8977 12.25Z" fill="#FFC709"/>
<path d="M0 14.1071V31.7292C0 32.9028 0.980122 33.8542 2.18912 33.8542H61.8107C63.0197 33.8542 63.9998 32.9028 63.9998 31.7292V14.1071C63.9998 12.3813 62.5584 10.9821 60.7804 10.9821H3.21936C1.44137 10.9821 0 12.3813 0 14.1071Z" fill="#747474"/>
<path d="M14.6885 40.4841H10.6942C9.97949 40.4841 9.40012 39.9048 9.40012 39.19V30.4668C9.40012 28.6759 10.8519 27.2242 12.6427 27.2242H12.7399C14.5307 27.2242 15.9825 28.6759 15.9825 30.4668V39.19C15.9825 39.9048 15.4031 40.4841 14.6885 40.4841Z" fill="#FFDD68"/>
<path d="M53.3057 40.4841H49.3114C48.5967 40.4841 48.0173 39.9048 48.0173 39.19V30.4668C48.0173 28.6759 49.469 27.2242 51.2599 27.2242H51.357C53.1479 27.2242 54.5997 28.6759 54.5997 30.4668V39.19C54.5998 39.9048 54.0204 40.4841 53.3057 40.4841Z" fill="#939393"/>
<path d="M12.6918 38.1066C12.1584 38.1066 11.726 37.6868 11.726 37.1691V32.0202C11.726 31.5025 12.1584 31.0827 12.6918 31.0827C13.2251 31.0827 13.6575 31.5025 13.6575 32.0202V37.1691C13.6575 37.6868 13.2251 38.1066 12.6918 38.1066Z" fill="#FFC709"/>
<path d="M51.3084 38.1066C50.775 38.1066 50.3426 37.6868 50.3426 37.1691V32.0202C50.3426 31.5025 50.775 31.0827 51.3084 31.0827C51.8417 31.0827 52.2741 31.5025 52.2741 32.0202V37.1691C52.2742 37.6868 51.8417 38.1066 51.3084 38.1066Z" fill="#585858"/>
<path d="M12.6914 27.2242C10.8737 27.2242 9.40012 28.6546 9.40012 30.4189V33.8542H15.9825V30.4189C15.9825 28.6546 14.509 27.2242 12.6914 27.2242Z" fill="#FFC709"/>
<path d="M51.3085 27.2242C49.4909 27.2242 48.0173 28.6546 48.0173 30.4189V33.8542H54.5997V30.4189C54.5998 28.6546 53.1263 27.2242 51.3085 27.2242Z" fill="#585858"/>
<path d="M60.7806 10.9821H55.6702C57.4482 10.9821 58.8896 12.3813 58.8896 14.1071V31.7292C58.8896 32.9028 57.9094 33.8542 56.7004 33.8542H61.8108C63.0198 33.8542 63.9999 32.9028 63.9999 31.7292V14.1071C63.9999 12.3813 62.5585 10.9821 60.7806 10.9821Z" fill="#7D7D7D"/>
<path d="M55.3125 39.0625H57.6562V34.375H55.3125V29.6875V25H35V29.6875V34.375H37.3438V39.0625H35V43.75V48.4375H37.3438V53.125H35V57.8125H55.3125V53.125H57.6562V48.4375H55.3125V43.75V39.0625Z" fill="#FFCB5B"/>
<path d="M55.3125 39.0625H57.6562V34.375H55.3125V29.6875V25H46.3281V57.8125H55.3125V53.125H57.6562V48.4375H55.3125V43.75V39.0625Z" fill="#F6B545"/>
<path d="M57.6562 48.4375H37.3438V53.125H57.6562V48.4375Z" fill="#F6B545"/>
<path d="M55.3125 39.0625H35V43.75H55.3125V39.0625Z" fill="#F6B545"/>
<path d="M55.3125 29.6875H35V34.375H55.3125V29.6875Z" fill="#F6B545"/>
<path d="M55.3125 39.0625H46.3281V43.75H55.3125V39.0625Z" fill="#F19920"/>
<path d="M55.3125 29.6875H46.3281V34.375H55.3125V29.6875Z" fill="#F19920"/>
<path d="M57.6562 48.4375H46.3281V53.125H57.6562V48.4375Z" fill="#F19920"/>
<path d="M63.6719 60.9375C57.4255 60.9375 52.3438 55.8557 52.3438 49.6094C52.3438 43.363 57.4255 38.2812 63.6719 38.2812C69.9182 38.2812 75 43.363 75 49.6094C75 55.8557 69.9182 60.9375 63.6719 60.9375Z" fill="#CECECE"/>
<path d="M63.6719 38.2812V60.9375C69.9182 60.9375 75 55.8557 75 49.6094C75 43.363 69.9182 38.2812 63.6719 38.2812Z" fill="#B7B7B7"/>
<path d="M67.1875 51.9531C67.1875 50.0146 65.6104 48.4375 63.6719 48.4375C63.0257 48.4375 62.5 47.9118 62.5 47.2656C62.5 47.0037 62.5842 46.7563 62.7437 46.5502C62.9915 46.2295 63.4138 46.0687 63.845 46.1304L66.2405 46.4726L66.572 44.1523L64.8438 43.9055V42.5781H62.5V43.9697C61.8687 44.1871 61.305 44.5791 60.8893 45.1167C60.4098 45.7371 60.1562 46.4802 60.1562 47.2656C60.1562 49.2041 61.7334 50.7812 63.6719 50.7812C64.318 50.7812 64.8438 51.307 64.8438 51.9531C64.8438 52.5393 64.4069 53.0387 63.8276 53.1148C63.769 53.1226 63.6955 53.1227 63.6089 53.1152L61.0376 52.8948L60.8374 55.2301L62.5 55.3726V56.6406H64.8438V55.2672C66.2194 54.7795 67.1875 53.4624 67.1875 51.9531Z" fill="#939393"/>
<path d="M63.6719 42.5781V46.1177C63.7291 46.1181 63.787 46.122 63.845 46.1303L66.2405 46.4725L66.572 44.1523L64.8438 43.9055V42.5781H63.6719Z" fill="#7A7A7A"/>
<path d="M63.6719 48.4375V50.7812C64.318 50.7812 64.8438 51.307 64.8438 51.9531C64.8438 52.5393 64.4069 53.0387 63.8276 53.1148C63.7838 53.1206 63.7316 53.1221 63.6719 53.1195V56.6406H64.8438V55.2672C66.2194 54.7795 67.1875 53.4624 67.1875 51.9531C67.1875 50.0146 65.6104 48.4375 63.6719 48.4375Z" fill="#7A7A7A"/>
</svg>