<svg width="77" height="63" viewBox="0 0 77 63" fill="none" xmlns="http://www.w3.org/2000/svg">
<path d="M27.9655 50.7586L30.1724 48.5517L31.2758 45.2414H46.7241L47.8276 48.5517L50.0345 50.7586L52.2414 52.5241L39 59.5862L25.7586 52.9655L27.9655 50.7586Z" fill="#A5A5A5"/>
<path d="M38.4952 56.2759L37.9393 59.0552L25.7586 52.9655L27.9655 50.7586L28.4538 50.2703L38.4952 56.2759Z" fill="#CF5252"/>
<path d="M52.2414 52.5241L40.5959 58.7352L40.1035 56.2759L49.771 50.4952L50.0345 50.7586L52.2414 52.5241Z" fill="#CF5252"/>
<path d="M30.1724 24.6897L27.8014 25.4621C27.1607 25.7824 26.5969 26.2375 26.1487 26.7963C25.7005 27.355 25.3784 28.0041 25.2047 28.699L22.4483 39.7241L13.6207 45.2414L10.3103 44.1379L7 45.2414L8.10345 50.7586L24.5268 45.6263C24.9163 45.5046 25.2773 45.3056 25.5882 45.0411C25.899 44.7766 26.1532 44.4521 26.3357 44.087L30.1724 36.4138V24.6897Z" fill="#FFCBB9"/>
<path d="M47.8276 24.6897L50.1986 25.4614C50.8393 25.7817 51.4031 26.2369 51.8513 26.7956C52.2995 27.3543 52.6216 28.0034 52.7953 28.6983L55.5517 39.7241L64.3793 45.2414L67.6896 44.1379L71 45.2414L69.8965 50.7586L53.4732 45.6263C53.0837 45.5046 52.7227 45.3056 52.4118 45.0411C52.101 44.7766 51.8467 44.4521 51.6643 44.087L47.8276 36.4138V24.6897Z" fill="#FFCBB9"/>
<path d="M42.3103 5.51724L41.9256 3.59407C41.723 2.58058 41.1754 1.66862 40.3761 1.01335C39.5768 0.358084 38.5752 -9.44186e-06 37.5416 1.86718e-10C36.3559 2.68e-05 35.2187 0.471072 34.3803 1.30952C33.0462 2.64352 31.988 4.22722 31.266 5.97019C30.544 7.71316 30.1724 9.58127 30.1724 11.4679V11.7793C30.1725 12.908 29.8938 14.0192 29.3613 15.0143C28.8287 16.0093 28.0587 16.8576 27.1196 17.4836L26.8621 17.6552L27.7172 18.0828C28.7982 18.6234 30.003 18.8685 31.2093 18.7934C32.4156 18.7183 33.5806 18.3257 34.5862 17.6552L42.3103 5.51724Z" fill="#3A484A"/>
<path d="M43.4138 23.3931L42.3103 23.1724V18.7586H35.6896V23.1724L34.5862 23.3931V28.6897L39 32L43.4138 28.6897V23.3931Z" fill="#FFCBB9"/>
<path d="M42.3103 18.7586V19.8621C41.3553 20.5783 40.1937 20.9655 39 20.9655C37.8062 20.9655 36.6446 20.5783 35.6896 19.8621V18.7586H42.3103Z" fill="#FDC9A6"/>
<path d="M43.4138 23.3931L47.8276 24.6896V29.7931C48.4681 30.7539 48.7863 31.8935 48.7362 33.0471C48.6862 34.2007 48.2704 35.3085 47.5491 36.2102L45.6207 38.6207H32.3793L30.4509 36.2102C29.7296 35.3085 29.3138 34.2007 29.2637 33.0471C29.2137 31.8935 29.5319 30.7539 30.1724 29.7931V24.6896L34.5862 23.3931V28.6896L39 32L43.4138 28.6896V23.3931Z" fill="#FFCB1D"/>
<path d="M32.3793 38.6207V40.4985C32.3793 41.4473 32.2264 42.3899 31.9264 43.2901L31.2759 45.2414H46.7242L46.0737 43.2901C45.7737 42.3899 45.6207 41.4473 45.6207 40.4985V38.6207H32.3793Z" fill="#FFCB1D"/>
<path d="M52.2414 52.5241L50.0345 50.7586L49.771 50.4952L40.1034 56.2759H38.4952L28.4538 50.2703L27.9655 50.7586L25.7586 52.9655L37.9393 58.4828H40.5958L52.2414 52.5241Z" fill="#949494"/>
<path d="M42.3103 18.7586V19.8621C41.3553 20.5783 40.1937 20.9655 39 20.9655C37.8062 20.9655 36.6446 20.5783 35.6896 19.8621V18.7586H42.3103Z" fill="#F6BB92"/>
<path d="M41.2069 62.8966L60.5201 55.0086C61.021 54.7434 61.4635 54.3803 61.8212 53.9407C62.1789 53.5012 62.4446 52.9942 62.6025 52.4499C62.7604 51.9056 62.8073 51.3352 62.7404 50.7724C62.6734 50.2097 62.494 49.6661 62.2128 49.1741C61.9252 48.6707 61.5372 48.2318 61.0728 47.8848C60.6084 47.5377 60.0776 47.2899 59.5134 47.1566C58.9491 47.0234 58.3635 47.0076 57.7929 47.1103C57.2223 47.2129 56.679 47.4318 56.1966 47.7534L40.1035 57.3793L41.2069 62.8966Z" fill="#A5A5A5"/>
<path d="M37.3914 62.8966L18.0782 55.0086C17.5773 54.7434 17.1349 54.3803 16.7772 53.9407C16.4194 53.5012 16.1537 52.9942 15.9958 52.4499C15.8379 51.9056 15.791 51.3352 15.858 50.7724C15.9249 50.2097 16.1043 49.6661 16.3855 49.1741C16.6731 48.6707 17.0612 48.2318 17.5256 47.8848C17.9899 47.5377 18.5207 47.2899 19.085 47.1566C19.6492 47.0234 20.2348 47.0076 20.8054 47.1103C21.376 47.2129 21.9194 47.4318 22.4018 47.7534L38.4949 57.3793L37.3914 62.8966Z" fill="#A5A5A5"/>
<path d="M40.1035 57.3793L34.5862 58.4828L31.2759 57.3793L29.069 59.5862L30.1724 62.8966H41.2069L40.1035 57.3793Z" fill="#FFCBB9"/>
<path d="M44.5172 12.1379V14.3448C44.5172 15.8081 43.9359 17.2114 42.9012 18.2461C41.8666 19.2808 40.4632 19.8621 39 19.8621C37.5367 19.8621 36.1334 19.2808 35.0987 18.2461C34.064 17.2114 33.4827 15.8081 33.4827 14.3448V9.93103C33.4822 9.34536 33.575 8.76335 33.7576 8.20689L44.5172 12.1379Z" fill="#FFCBB9"/>
<path d="M44.5172 9.93104V12.1379C40.9359 12.1379 37.4512 10.9764 34.5862 8.82759L33.7586 8.2069C34.1683 6.96033 35.0089 5.90061 36.1295 5.21792C37.2501 4.53524 38.5774 4.27429 39.873 4.48193C41.1687 4.68957 42.3479 5.35218 43.199 6.35086C44.0502 7.34953 44.5176 8.61886 44.5172 9.93104Z" fill="#3A484A"/>
<path d="M16 29.4436C16 26.9895 14.0237 25 11.5862 25C10.371 25 9.27283 25.496 8.47559 26.2966C8.21076 26.5625 7.78952 26.5625 7.52469 26.2966C6.72717 25.496 5.62896 25 4.41379 25C1.97628 25 0 26.9895 0 29.4436C0 30.6726 0.495724 31.7848 1.29683 32.5895L7.53931 38.8742C7.79696 39.1335 8.21683 39.1335 8.47421 38.8739L9.96745 37.3691L14.0028 33.3021L14.7139 32.5854L14.7106 32.5818C15.5073 31.7782 16 30.669 16 29.4436Z" fill="#DD352E"/>
<path d="M12 40C14.2091 40 16 38.2091 16 36C16 33.7909 14.2091 32 12 32C9.79086 32 8 33.7909 8 36C8 38.2091 9.79086 40 12 40Z" fill="#FFCB1D"/>
<path d="M12.0001 38.5455C11.7994 38.5455 11.6365 38.3825 11.6365 38.1818V33.8182C11.6365 33.6175 11.7994 33.4545 12.0001 33.4545C12.2008 33.4545 12.3637 33.6175 12.3637 33.8182V38.1818C12.3637 38.3825 12.2008 38.5455 12.0001 38.5455Z" fill="white"/>
<path d="M14.182 36.3636H9.81835C9.61762 36.3636 9.45471 36.2007 9.45471 36C9.45471 35.7993 9.61762 35.6364 9.81835 35.6364H14.182C14.3827 35.6364 14.5456 35.7993 14.5456 36C14.5456 36.2007 14.3827 36.3636 14.182 36.3636Z" fill="white"/>
<path d="M73.1356 42H71.4243C71.2539 42 71.0904 41.9323 70.9699 41.8118C70.8494 41.6913 70.7817 41.5278 70.7817 41.3574V38.6116H73.7782V41.3574C73.7782 41.5278 73.7105 41.6913 73.59 41.8118C73.4695 41.9323 73.306 42 73.1356 42Z" fill="#5A5A5A"/>
<path d="M71.7659 34.0004H72.794V38.6117H71.7659V34.0004Z" fill="#9B9B9B"/>
<path d="M72.7004 31.3418H73.1446V34.0004H71.4153V32.627C71.4153 32.2861 71.5507 31.9592 71.7917 31.7182C72.0327 31.4772 72.3596 31.3418 72.7004 31.3418Z" fill="#EE3E37"/>
<path d="M66.7343 29.7102C67.2128 30.0008 67.7619 30.1544 68.3217 30.1545H69.6783C70.2381 30.1544 70.7872 30.0008 71.2657 29.7102C71.8384 29.3625 72.5094 29.2125 73.1757 29.2831L77 29.6886L74.0165 28.1491C73.8482 28.0622 73.691 27.9552 73.5485 27.8304L72.1091 26.5692C71.8012 26.2994 71.4267 26.1169 71.0246 26.0404C70.6224 25.964 70.207 25.9964 69.8216 26.1343L69.7695 26.1529C69.276 26.3319 68.7355 26.3332 68.2411 26.1567L68.2107 26.1459C67.8171 26.0047 67.393 25.9713 66.9822 26.049C66.5713 26.1267 66.1887 26.3127 65.8739 26.5878L64.4518 27.8307C64.3091 27.9553 64.1518 28.0623 63.9835 28.1491L61 29.6886L64.8243 29.2831C65.4906 29.2125 66.1616 29.3625 66.7343 29.7102Z" fill="#EE3E37"/>
<path d="M73.1757 29.2831C72.5094 29.2125 71.8384 29.3625 71.2657 29.7102C70.7872 30.0008 70.2381 30.1544 69.6783 30.1545H68.3217C67.7619 30.1544 67.2128 30.0008 66.7343 29.7102C66.1616 29.3625 65.4906 29.2125 64.8243 29.2831L61 29.6886L62.5607 30.5026C63.1607 30.8156 63.7093 31.2182 64.1878 31.6968L64.2972 31.8061C65.2101 32.7202 66.3698 33.3482 67.6342 33.6131C68.8987 33.8781 70.2129 33.7686 71.4161 33.2979V32.627C71.4161 32.2861 71.5515 31.9592 71.7925 31.7182C72.0335 31.4772 72.3604 31.3418 72.7012 31.3418H73.1446V32.3027C73.3399 32.1478 73.5262 31.982 73.7028 31.8061L73.8122 31.6968C74.2907 31.2182 74.8393 30.8156 75.4393 30.5026L77 29.6886L73.1757 29.2831Z" fill="#DD352E"/>
</svg>