<svg width="52" height="74" viewBox="0 0 52 74" fill="none" xmlns="http://www.w3.org/2000/svg">
<path d="M27.8571 54.4333H36.4286V38.4333H26.1429H9H3.28571H1V73.8618H27.8571V54.4333Z" fill="#747474"/>
<path d="M33.6879 14.9523V9.51603C33.6879 7.57408 35.2658 6 37.2121 6H44.4758C46.4221 6 48 7.57408 48 9.51603V14.4837C48 16.4256 46.4221 18 44.4758 18H32L33.6879 14.9523Z" fill="#FFC500"/>
<path d="M27.8571 73.8618H30.7143V56.719H36.4285V54.4333H27.8571V73.8618Z" fill="#626262"/>
<path d="M27 73.86H29.9531H36.45V54H29.9531H27V73.86Z" fill="#747474"/>
<path d="M8.99999 35.0047H5.57142H3.28571V38.4333H8.99999V35.0047Z" fill="#FDC12A"/>
<path d="M9.00003 20.1476L5.57146 22.4333V35.0047H9.00003V20.1476Z" fill="#FFCBB9"/>
<path d="M17.5714 16.719C19.8571 16.719 21.9029 14.5361 23 12.1475C23.5211 11.0767 23.813 9.90901 23.8571 8.71897C23.7684 7.13236 23.0598 5.64416 21.8839 4.57522C20.7081 3.50629 19.1593 2.94224 17.5714 3.00468C15.9836 2.94224 14.4348 3.50629 13.2589 4.57522C12.0831 5.64416 11.3744 7.13236 11.2857 8.71897C11.3298 9.90901 11.6218 11.0767 12.1429 12.1475C13.24 14.5361 15.2743 16.719 17.5714 16.719Z" fill="#FFCBB9"/>
<path d="M26.1429 25.8618V20.1476H23.8572H22.7143L18.1429 25.8618L12.4286 20.1476H11.2857H9.00002V38.4333H26.1429V25.8618Z" fill="#FFCF2A"/>
<path d="M18.1429 25.8618L22.7143 20.1476H12.4286L18.1429 25.8618Z" fill="#2AAFF5"/>
<path d="M34.1429 35.0047L42.1429 27.0047V22.4333L34.1429 30.4333L26.1429 20.1476V25.8618L34.1429 35.0047Z" fill="#FFCBB9"/>
<path d="M22.6343 5.35897C22.0177 4.61583 21.2435 4.01908 20.3679 3.6119C19.4923 3.20473 18.5371 2.99732 17.5714 3.00468C15.9836 2.94224 14.4348 3.50629 13.2589 4.57522C12.0831 5.64416 11.3744 7.13236 11.2857 8.71897H18.1429L22.6343 5.35897Z" fill="#747474"/>
<path d="M12.4286 20.1476L18.1429 25.8618L22.7143 20.1476H12.4286Z" fill="#FFCBB9"/>
<path d="M20.4285 30.4333H23.8571V32.719H20.4285V30.4333Z" fill="#CFA000"/>
<path d="M46.7143 24.719H42.1429C41.8398 24.719 41.5491 24.5986 41.3347 24.3842C41.1204 24.1699 41 23.8792 41 23.5761C41 23.273 41.1204 22.9823 41.3347 22.768C41.5491 22.5537 41.8398 22.4333 42.1429 22.4333H46.7143C47.0174 22.4333 47.3081 22.5537 47.5224 22.768C47.7367 22.9823 47.8571 23.273 47.8571 23.5761C47.8571 23.8792 47.7367 24.1699 47.5224 24.3842C47.3081 24.5986 47.0174 24.719 46.7143 24.719Z" fill="#FFC3AE"/>
<path d="M12.1429 12.1476L11.2857 8.71898V20.1476H14.7143V15.5761C13.61 14.6414 12.731 13.4694 12.1429 12.1476Z" fill="#747474"/>
<path d="M23 12.1476C22.4118 13.4694 21.5328 14.6414 20.4285 15.5761V20.1476H23.8571V9.43898L23 12.1476Z" fill="#747474"/>
<path d="M17.5714 16.719C16.5156 16.6796 15.506 16.2758 14.7143 15.5761V20.1475H20.4286V15.5761C19.6369 16.2758 18.6273 16.6796 17.5714 16.719Z" fill="#FFC3AE"/>
<path d="M3.28571 35.0047H8.99999V38.4333H3.28571V35.0047Z" fill="#FFC3AE"/>
<path d="M0 39H37V47H0V39Z" fill="#FFCE2A"/>
<path d="M27.4285 42H29.7142V44.2857H27.4285V42Z" fill="#CFA000"/>
<path d="M30.8571 42H33.1428V44.2857H30.8571V42Z" fill="#CFA000"/>
<path d="M1 62.4333H7.85714V64.719H1V62.4333Z" fill="#747474"/>
<path d="M1 57.8618H5.57143V60.1475H1V57.8618Z" fill="#747474"/>
<path d="M18.7143 70.4333H6.14284C5.83974 70.4333 5.54905 70.3129 5.33472 70.0985C5.12039 69.8842 4.99998 69.5935 4.99998 69.2904C4.99998 68.9873 5.12039 68.6966 5.33472 68.4823C5.54905 68.268 5.83974 68.1476 6.14284 68.1476H18.7143C19.0174 68.1476 19.3081 68.268 19.5224 68.4823C19.7367 68.6966 19.8571 68.9873 19.8571 69.2904C19.8571 69.5935 19.7367 69.8842 19.5224 70.0985C19.3081 70.3129 19.0174 70.4333 18.7143 70.4333Z" fill="#747474"/>
<path d="M12.4286 44.1475H5.57142C5.26831 44.1475 4.97762 44.0271 4.76329 43.8128C4.54897 43.5985 4.42856 43.3078 4.42856 43.0047C4.42856 42.7016 4.54897 42.4109 4.76329 42.1966C4.97762 41.9822 5.26831 41.8618 5.57142 41.8618H12.4286C12.7317 41.8618 13.0224 41.9822 13.2367 42.1966C13.451 42.4109 13.5714 42.7016 13.5714 43.0047C13.5714 43.3078 13.451 43.5985 13.2367 43.8128C13.0224 44.0271 12.7317 44.1475 12.4286 44.1475Z" fill="#CFA000"/>
<path d="M12.1597 60.0407L11 61.2005L15.0591 62.9401L16.7995 67L17.9593 65.8403L17.3794 62.9401L20.0967 60.2228L23.0575 66.5415L24.1558 65.4433L23.1797 57.1406L25.4992 54.8203C25.6559 54.6689 25.7809 54.4879 25.8668 54.2878C25.9528 54.0877 25.998 53.8724 25.9999 53.6546C26.0018 53.4368 25.9603 53.2208 25.8778 53.0192C25.7954 52.8176 25.6736 52.6345 25.5195 52.4805C25.3655 52.3264 25.1824 52.2046 24.9808 52.1222C24.7792 52.0397 24.5632 51.9982 24.3454 52.0001C24.1276 52.002 23.9123 52.0472 23.7122 52.1332C23.5121 52.2191 23.3311 52.3441 23.1797 52.5008L20.7987 54.8818L12.496 53.9049L11.4585 54.9433L17.728 57.9534L15.0599 60.6214L12.1597 60.0407Z" fill="#FFCE2A"/>
</svg>