<svg width="64" height="73" viewBox="0 0 64 73" fill="none" xmlns="http://www.w3.org/2000/svg">
<path d="M47.5556 9.18506L45.6297 7.111H18.3704L16.4446 9.18506L2.00331 14.129C0.805052 14.5393 0 15.6656 0 16.9322V69.9258C0 71.5623 1.32652 72.8888 2.96296 72.8888H61.037C62.6735 72.8888 64 71.5623 64 69.9258V16.9322C64 15.6656 63.195 14.5391 61.9967 14.129L47.5556 9.18506Z" fill="#747474"/>
<path d="M59.2588 13.1919V72.8889H61.0366C62.673 72.8889 63.9996 71.5624 63.9996 69.9259V16.9323C63.9996 15.6657 63.1945 14.5392 61.9963 14.1291L59.2588 13.1919Z" fill="#868686"/>
<path d="M16.4447 9.18506L5.48178 12.9381L14.9928 31.0611C15.2633 31.5765 15.3743 32.1607 15.3117 32.7394L13.7538 47.1496C13.6741 47.8866 13.8764 48.6263 14.3201 49.2203L32.0002 72.8888L16.4447 9.18506Z" fill="#626262"/>
<path d="M47.5555 9.18506L58.5185 12.9381L49.0075 31.0611C48.737 31.5765 48.6259 32.1607 48.6886 32.7394L50.2464 47.1495C50.3261 47.8865 50.1238 48.6262 49.6801 49.2201L32 72.8888L47.5555 9.18506Z" fill="#626262"/>
<path d="M45.6298 7.111H18.3705L16.4447 9.18506L32.0002 72.8888L47.5557 9.18506L45.6298 7.111Z" fill="#F6F9F9"/>
<path d="M32.0003 72.8889L39.2076 43.3731L34.0743 19.8519H29.9262L24.793 43.3731L32.0003 72.8889Z" fill="#FFC709"/>
<path d="M18.3705 7.111L16.4447 9.18506L17.7078 14.3579L24.4508 20.5294C25.1179 21.14 26.1715 21.0156 26.6782 20.2666L32.0002 12.3991L37.3224 20.2667C37.829 21.0157 38.8826 21.14 39.5497 20.5295L46.2927 14.358L47.5558 9.1852L45.6298 7.111H18.3705Z" fill="#F1F4F6"/>
<path d="M32 8.90687H33.2148L37.863 15.7782C38.3645 16.5196 39.4076 16.6428 40.0679 16.0383L47.5555 9.18519V3.55566H32V8.90687Z" fill="#F6F9F9"/>
<path d="M32.0002 8.90687H30.7854L26.1372 15.7782C25.6356 16.5196 24.5926 16.6428 23.9323 16.0383L16.4447 9.18519V3.55566H32.0002V8.90687Z" fill="#F6F9F9"/>
<path d="M32.0002 7.11122C40.5913 7.11122 47.5557 5.51932 47.5557 3.55561C47.5557 1.5919 40.5913 0 32.0002 0C23.4091 0 16.4447 1.5919 16.4447 3.55561C16.4447 5.51932 23.4091 7.11122 32.0002 7.11122Z" fill="#DFEAEF"/>
<path d="M34.5984 22.2554L34.0737 19.8519H29.9256L29.401 22.2554H34.5984Z" fill="#FFDD68"/>
<path d="M34.0737 19.8518L37.6246 15.4264L33.2142 8.90683C32.6326 8.04711 31.3664 8.04711 30.7847 8.90683L26.3744 15.4264L29.9253 19.8518H34.0737Z" fill="#FFC709"/>
</svg>