<svg width="64" height="58" viewBox="0 0 64 58" fill="none" xmlns="http://www.w3.org/2000/svg">
<path d="M24.4638 51.1831C24.3554 52.076 23.866 53.0071 23.1216 53.512L21.8976 54.3422C23.6521 54.3422 39.4965 54.3422 42.1023 54.3422L40.8783 53.512C40.1339 53.0071 39.6444 52.076 39.5361 51.183L38.9415 46.1525H25.0584L24.4638 51.1831Z" fill="#BCBCBC"/>
<path d="M28.413 51.7896L29.0076 46.1525H25.0583L24.4637 51.1831C24.3553 52.076 23.866 53.0071 23.1216 53.512L21.8977 54.3422C24.7282 54.3422 24.3146 54.3422 27.1408 54.3422C27.8453 53.7655 28.3081 52.7581 28.413 51.7896Z" fill="#C8C8C8"/>
<path d="M60.36 46.2812H3.64C1.638 46.2812 0 44.6432 0 42.6412V3.65093C0 1.64893 1.638 0.0109253 3.64 0.0109253H60.36C62.362 0.0109253 64 1.64893 64 3.65093V42.6412C64 44.6432 62.362 46.2812 60.36 46.2812Z" fill="#A5A5A5"/>
<path d="M3.6795 42.6412V3.65093C3.6795 1.64893 5.3175 0.0109253 7.3195 0.0109253H3.64C1.638 0.0109253 0 1.64893 0 3.65093V42.6413C0 44.6433 1.638 46.2813 3.64 46.2813H7.3195C5.3175 46.2812 3.6795 44.6432 3.6795 42.6412Z" fill="#B4B4B4"/>
<path d="M60.36 0.0109253H3.64C1.638 0.0109253 0 1.64893 0 3.65092V38.9298H64V3.65092C64 1.64893 62.362 0.0109253 60.36 0.0109253Z" fill="#535454"/>
<path d="M0 3.65094V38.9298H3.67938V3.65094C3.67938 1.64894 5.31738 0.010942 7.31938 0.010942C3.52588 0.017192 3.0175 -0.117308 1.98925 0.410442C0.811375 1.01494 0 2.24244 0 3.65094Z" fill="#656565"/>
<path d="M59.6993 35.2561H4.3006C3.9576 35.2561 3.67947 34.978 3.67947 34.635V4.28571C3.67947 3.94258 3.9576 3.66458 4.3006 3.66458H59.6993C60.0423 3.66458 60.3205 3.94271 60.3205 4.28571V34.6348C60.3205 34.978 60.0425 35.2561 59.6993 35.2561Z" fill="#DAE7EF"/>
<path d="M7.54285 34.6348V4.28571C7.54285 3.94258 7.82097 3.66458 8.16397 3.66458H4.3006C3.9576 3.66458 3.67947 3.94271 3.67947 4.28571V34.6348C3.67947 34.9778 3.9576 35.256 4.3006 35.256H8.16397C7.82097 35.2561 7.54285 34.978 7.54285 34.6348Z" fill="#CFDFE9"/>
<path d="M43.9096 54.2133C37.1362 54.2133 26.9007 54.2133 20.0904 54.2133C19.08 54.2133 18.2535 55.0399 18.2535 56.0502C18.2535 57.0604 19.0801 57.8871 20.0904 57.8871C26.9986 57.8871 37.1662 57.8871 43.9096 57.8871C44.9199 57.8871 45.7465 57.0604 45.7465 56.0502C45.7465 55.0399 44.9199 54.2133 43.9096 54.2133Z" fill="#A5A5A5"/>
<path d="M25.4526 56.0503C25.4526 55.0401 26.2793 54.2134 27.2895 54.2134C26.141 54.2134 21.8705 54.2134 20.0903 54.2134C19.0799 54.2134 18.2534 55.0401 18.2534 56.0503C18.2534 57.0606 19.08 57.8872 20.0903 57.8872C21.8589 57.8872 26.1244 57.8872 27.2895 57.8872C26.2793 57.8872 25.4526 57.0606 25.4526 56.0503Z" fill="#B4B4B4"/>
<path d="M32 43.5738C32.5372 43.5738 32.9728 43.1383 32.9728 42.601C32.9728 42.0638 32.5372 41.6283 32 41.6283C31.4628 41.6283 31.0273 42.0638 31.0273 42.601C31.0273 43.1383 31.4628 43.5738 32 43.5738Z" fill="#666666"/>
<path d="M18.2325 32.414H15.648C15.4111 32.414 15.2172 32.2201 15.2172 31.9832V29.3987C15.2172 29.1618 15.4111 28.968 15.648 28.968H18.2325C18.4693 28.968 18.6632 29.1618 18.6632 29.3987V31.9832C18.6632 32.2201 18.4693 32.414 18.2325 32.414Z" fill="#FFB70D"/>
<path d="M30.2804 32.414H27.6959C27.459 32.414 27.2651 32.2201 27.2651 31.9832V29.3987C27.2651 29.1618 27.459 28.968 27.6959 28.968H30.2804C30.5172 28.968 30.7111 29.1618 30.7111 29.3987V31.9832C30.7111 32.2201 30.5172 32.414 30.2804 32.414Z" fill="#FFB70D"/>
<path d="M42.3281 32.414H39.7436C39.5067 32.414 39.3129 32.2201 39.3129 31.9832V29.3987C39.3129 29.1618 39.5067 28.968 39.7436 28.968H42.3281C42.565 28.968 42.7589 29.1618 42.7589 29.3987V31.9832C42.7589 32.2201 42.565 32.414 42.3281 32.414Z" fill="#FFB70D"/>
<path d="M24.2564 32.414H21.6719C21.435 32.414 21.2411 32.2201 21.2411 31.9832V29.3987C21.2411 29.1618 21.435 28.968 21.6719 28.968H24.2564C24.4932 28.968 24.6871 29.1618 24.6871 29.3987V31.9832C24.6871 32.2201 24.4934 32.414 24.2564 32.414Z" fill="#FFB70D"/>
<path d="M36.3042 32.414H33.7197C33.4829 32.414 33.289 32.2201 33.289 31.9832V29.3987C33.289 29.1618 33.4829 28.968 33.7197 28.968H36.3042C36.5411 28.968 36.735 29.1618 36.735 29.3987V31.9832C36.735 32.2201 36.5411 32.414 36.3042 32.414Z" fill="#FFB70D"/>
<path d="M48.352 32.414H45.7675C45.5306 32.414 45.3368 32.2201 45.3368 31.9832V29.3987C45.3368 29.1618 45.5306 28.968 45.7675 28.968H48.352C48.5889 28.968 48.7828 29.1618 48.7828 29.3987V31.9832C48.7828 32.2201 48.589 32.414 48.352 32.414Z" fill="#FFB70D"/>
</svg>