<svg width="40" height="40" viewBox="0 0 40 40" fill="none" xmlns="http://www.w3.org/2000/svg">
<circle cx="20" cy="20" r="20" fill="#FAFAFA"/>
<path d="M20.0402 10.0001C14.5528 10.0001 10.0804 14.45 10.0804 19.91C10.0804 21.66 10.5427 23.36 11.407 24.86L10 30L15.2764 28.62C16.7337 29.41 18.3719 29.83 20.0402 29.83C25.5276 29.83 30 25.38 30 19.92C30 17.27 28.9648 14.78 27.0854 12.9101C26.164 11.984 25.0665 11.2497 23.8569 10.7501C22.6473 10.2505 21.3499 9.99552 20.0402 10.0001ZM20.0503 11.6701C22.2613 11.6701 24.3317 12.5301 25.8995 14.09C26.669 14.8554 27.279 15.7644 27.6946 16.7648C28.1103 17.7652 28.3233 18.8375 28.3216 19.92C28.3216 24.46 24.603 28.15 20.0402 28.15C18.5528 28.15 17.0955 27.76 15.8291 27L15.5276 26.83L12.392 27.65L13.2261 24.61L13.0251 24.29C12.1949 22.9787 11.7558 21.4598 11.7588 19.91C11.7688 15.37 15.4774 11.6701 20.0503 11.6701ZM16.5126 15.33C16.3518 15.33 16.0804 15.39 15.8492 15.64C15.6281 15.89 14.9749 16.5 14.9749 17.71C14.9749 18.93 15.8693 20.1 15.9799 20.27C16.1206 20.44 17.7487 22.94 20.2513 24C20.8442 24.27 21.3065 24.42 21.6683 24.53C22.2613 24.72 22.804 24.69 23.2362 24.63C23.7186 24.56 24.7035 24.03 24.9146 23.45C25.1256 22.87 25.1256 22.38 25.0653 22.27C24.995 22.17 24.8342 22.11 24.5829 22C24.3317 21.86 23.1055 21.26 22.8844 21.18C22.6533 21.1 22.5126 21.06 22.3216 21.3C22.1608 21.55 21.6784 22.11 21.5377 22.27C21.3869 22.44 21.2462 22.46 21.005 22.34C20.7437 22.21 19.9397 21.95 18.995 21.11C18.2513 20.45 17.7588 19.64 17.608 19.39C17.4874 19.15 17.598 19 17.7186 18.89C17.8291 18.78 17.9899 18.6 18.0905 18.45C18.2211 18.31 18.2613 18.2 18.3417 18.04C18.4221 17.87 18.3819 17.73 18.3216 17.61C18.2613 17.5 17.7588 16.26 17.5477 15.77C17.3467 15.29 17.1457 15.35 16.9849 15.34C16.8442 15.34 16.6834 15.33 16.5126 15.33Z" fill="#3C77BF"/>
</svg>