<svg width="82" height="82" viewBox="0 0 82 82" fill="none" xmlns="http://www.w3.org/2000/svg">
<g clip-path="url(#clip0)">
<path d="M61.6921 4.72461C50.6169 4.72461 41.6394 10.5791 41.6394 21.8732C41.6394 33.1674 50.6169 42.3213 61.6921 42.3213C72.766 42.3213 81.7429 33.1674 81.7429 21.8732C81.7429 10.5791 72.766 4.72461 61.6921 4.72461Z" fill="#FFCBB9"/>
<path d="M45.5989 21.8732C45.5989 11.2604 53.526 2.53748 63.6715 1.52399C63.0202 1.4583 62.3602 1.42451 61.6921 1.42451C50.6169 1.42451 41.6394 10.5791 41.6394 21.8732C41.6394 33.1674 50.6169 42.3213 61.6921 42.3213C62.3602 42.3213 63.0202 42.2875 63.6715 42.2224C53.526 41.2083 45.5989 32.4854 45.5989 21.8732Z" fill="#FFC3AE"/>
<path d="M72.38 26.1605C71.6962 26.1605 71.1425 25.6068 71.1425 24.9231V22.8448C71.1425 22.1616 71.6962 21.6073 72.38 21.6073C73.0638 21.6073 73.6175 22.1616 73.6175 22.8448V24.9231C73.6175 25.6068 73.0638 26.1605 72.38 26.1605Z" fill="#FFCBB9"/>
<path d="M73.7951 29.2154H70.9648C70.2811 29.2154 69.7274 28.6611 69.7274 27.9779C69.7274 27.2948 70.2811 26.7405 70.9648 26.7405H73.7951C74.4789 26.7405 75.0326 27.2948 75.0326 27.9779C75.0326 28.6611 74.4789 29.2154 73.7951 29.2154Z" fill="#FFCBB9"/>
<path d="M51.0023 26.1605C50.3185 26.1605 49.7648 25.6068 49.7648 24.9231V22.8448C49.7648 22.1616 50.3185 21.6073 51.0023 21.6073C51.6861 21.6073 52.2397 22.1616 52.2397 22.8448V24.9231C52.2397 25.6068 51.6861 26.1605 51.0023 26.1605Z" fill="#FFCBB9"/>
<path d="M52.4174 29.2154H49.5871C48.9033 29.2154 48.3497 28.6611 48.3497 27.9779C48.3497 27.2948 48.9033 26.7405 49.5871 26.7405H52.4174C53.1012 26.7405 53.6548 27.2948 53.6548 27.9779C53.6548 28.6611 53.1012 29.2154 52.4174 29.2154Z" fill="#FFCBB9"/>
<path d="M61.6908 29.0978C60.5885 29.0978 59.5525 28.6354 58.8474 27.829C58.3976 27.3141 58.4508 26.5328 58.965 26.0829C59.4799 25.6331 60.2613 25.6857 60.7111 26.2006C60.9457 26.4689 61.3029 26.6228 61.6908 26.6228C62.0787 26.6228 62.4365 26.4689 62.6711 26.1999C63.121 25.6857 63.9023 25.6331 64.4172 26.0829C64.9321 26.5328 64.9847 27.3148 64.5342 27.829C63.8298 28.6354 62.7931 29.0978 61.6908 29.0978Z" fill="#FFCBB9"/>
<path d="M80.7832 15.6071C79.4062 -1.15675 72.6465 1.42451 61.6921 1.42451C53.4102 1.42451 49.4332 0.59558 47.7391 0.0669394C47.0615 -0.145143 46.3321 0.160155 46.0099 0.792647C44.6573 3.44711 41.6394 10.6279 41.6394 21.8732C41.6394 21.8732 46.4353 13.2367 61.6914 13.2367C68.789 13.2367 68.1953 15.6071 80.7832 15.6071Z" fill="#3A484A"/>
<path d="M49.97 0.792647C50.0013 0.731337 50.0369 0.673781 50.0757 0.619353C49.0297 0.428542 48.2715 0.232726 47.7391 0.0669394C47.0615 -0.145143 46.3321 0.160155 46.0099 0.792647C44.6573 3.44711 41.6394 10.6279 41.6394 21.8732C41.6394 21.8732 42.7874 19.8081 45.7428 17.6979C46.3565 8.83987 48.7926 3.10178 49.97 0.792647Z" fill="#323E40"/>
<path d="M0.494858 60.7593V73.9415C0.494858 77.2253 2.96414 79.9849 6.22858 80.3478L15.7034 81.4019L0.494858 60.7593Z" fill="#3A484A"/>
<path d="M40.569 60.7593V73.9415C40.569 77.2253 38.1003 79.9849 34.8359 80.3478L25.361 81.4019L40.569 60.7593Z" fill="#3A484A"/>
<path d="M40.569 60.7593C40.5677 60.7612 40.5677 60.7612 40.5677 60.7612L20.0871 45.2779L0.496735 60.7612L0.494858 60.7593C0.485474 61.0227 0.480469 61.2854 0.480469 61.5507C0.480469 72.8448 9.45735 82 20.5319 82C31.6071 82 40.584 72.8448 40.584 61.5507C40.584 61.286 40.579 61.0227 40.569 60.7593Z" fill="#FFCBB9"/>
<path d="M3.81184 60.108C2.72891 60.4108 1.62096 60.6367 0.496735 60.7612L0.494858 60.7593C0.485474 61.0227 0.480469 61.2854 0.480469 61.5507C0.480469 72.8448 9.45735 82 20.5319 82C21.1043 82 21.6705 81.9744 22.2304 81.9262C12.2726 81.0165 4.36363 71.6962 3.81184 60.108Z" fill="#FFC3AE"/>
<path d="M9.84335 65.838C9.16019 65.838 8.6059 65.2843 8.6059 64.6005V62.5222C8.6059 61.8391 9.16019 61.2848 9.84335 61.2848C10.5271 61.2848 11.0808 61.8391 11.0808 62.5222V64.6005C11.0808 65.2843 10.5271 65.838 9.84335 65.838Z" fill="#FFCBB9"/>
<path d="M11.2585 68.8929H8.42824C7.74445 68.8929 7.19078 68.3392 7.19078 67.6554C7.19078 66.9722 7.74445 66.4179 8.42824 66.4179H11.2585C11.9423 66.4179 12.496 66.9722 12.496 67.6554C12.496 68.3392 11.9423 68.8929 11.2585 68.8929Z" fill="#FFCBB9"/>
<path d="M31.2211 65.838C30.5379 65.838 29.9836 65.2843 29.9836 64.6005V62.5222C29.9836 61.8391 30.5379 61.2848 31.2211 61.2848C31.9049 61.2848 32.4585 61.8391 32.4585 62.5222V64.6005C32.4585 65.2843 31.9049 65.838 31.2211 65.838Z" fill="#FFCBB9"/>
<path d="M32.6362 68.8929H29.806C29.1222 68.8929 28.5685 68.3392 28.5685 67.6554C28.5685 66.9722 29.1222 66.4179 29.806 66.4179H32.6362C33.32 66.4179 33.8737 66.9722 33.8737 67.6554C33.8737 68.3392 33.32 68.8929 32.6362 68.8929Z" fill="#FFCBB9"/>
<path d="M20.5319 68.7758C19.4296 68.7758 18.3936 68.3135 17.6885 67.5065C17.2387 66.9922 17.2919 66.2102 17.8061 65.7604C18.3204 65.3112 19.1024 65.3638 19.5522 65.878C19.7868 66.147 20.144 66.3009 20.5319 66.3009C20.9198 66.3009 21.2776 66.147 21.5122 65.878C21.9621 65.3638 22.7441 65.3112 23.2583 65.761C23.7732 66.2108 23.8258 66.9922 23.3759 67.5071C22.6709 68.3135 21.6342 68.7758 20.5319 68.7758Z" fill="#FFCBB9"/>
<path d="M0.494858 60.7593L0.496735 60.7612C11.2585 59.5706 20.5319 49.1761 20.5319 49.1761C20.5319 49.1761 29.806 59.5706 40.5677 60.7612C40.5677 60.7612 40.5677 60.7612 40.569 60.7593C40.1617 49.8324 31.3475 41.1026 20.5319 41.1026C9.71698 41.1026 0.902756 49.8324 0.494858 60.7593Z" fill="#3A484A"/>
<path d="M22.2648 41.1796C21.6937 41.1295 21.1162 41.1026 20.5319 41.1026C9.71698 41.1026 0.902756 49.8324 0.494858 60.7599L0.496735 60.7612C1.68602 60.6298 2.66948 60.4377 3.81184 60.108C4.52191 50.097 12.4834 42.0329 22.2648 41.1796Z" fill="#323E40"/>
<path d="M32.9503 27.8734V15.5133C32.9503 11.0977 29.3712 7.51796 24.955 7.51796H8.47577C4.06021 7.51796 0.480469 11.0977 0.480469 15.5133V26.8087C0.480469 31.2242 4.06021 34.8033 8.47577 34.8033H36.7796L32.9503 27.8734Z" fill="#747474"/>
<path d="M49.2731 68.2641V55.9033C49.2731 51.4877 52.8528 47.9086 57.2684 47.9086H73.7476C78.1631 47.9086 81.7429 51.4877 81.7429 55.9033V67.1987C81.7429 71.6142 78.1631 75.194 73.7476 75.194H45.4437L49.2731 68.2641Z" fill="#747474"/>
<path d="M70.6688 61.498C70.393 61.0647 70.0177 60.7074 69.576 60.4577C69.1342 60.2079 68.6394 60.0732 68.1351 60.0654C68.1275 59.8414 68.0997 59.6186 68.0521 59.3998C68.035 59.3146 68.0013 59.2338 67.9532 59.1622C67.9051 59.0906 67.8435 59.0296 67.772 58.9829C67.7005 58.9362 67.6205 58.9047 67.537 58.8902C67.4534 58.8758 67.3678 58.8787 67.2853 58.8988C67.2028 58.9189 67.1251 58.9558 67.0568 59.0072C66.9885 59.0587 66.9309 59.1238 66.8875 59.1985C66.8441 59.2732 66.8158 59.3561 66.8042 59.4423C66.7926 59.5284 66.798 59.6161 66.82 59.7001C66.8482 59.8286 66.8656 59.9593 66.872 60.0908C66.1654 60.1805 65.4724 60.36 64.8089 60.6251C64.8234 59.8425 64.8576 59.0605 64.9336 58.2805L64.9577 58.0322C65.6999 57.9283 66.4361 57.784 67.1634 57.6L67.2394 57.5805C67.3229 57.5628 67.402 57.528 67.4721 57.4781C67.5421 57.4283 67.6017 57.3644 67.6471 57.2904C67.6926 57.2164 67.723 57.1338 67.7365 57.0474C67.7501 56.961 67.7465 56.8727 67.7261 56.7878C67.7056 56.7029 67.6686 56.6231 67.6174 56.5532C67.5661 56.4833 67.5017 56.4247 67.4278 56.381C67.354 56.3373 67.2723 56.3093 67.1877 56.2987C67.1031 56.2881 67.0172 56.2952 66.9353 56.3195L66.858 56.339C66.274 56.4885 65.6824 56.6016 65.0882 56.6965L65.1839 55.715C65.2007 55.5435 65.1504 55.3721 65.044 55.2386C64.9914 55.1726 64.9266 55.1178 64.8533 55.0774C64.78 55.037 64.6997 55.0118 64.6169 55.0033C64.4498 54.986 64.2828 55.0376 64.1527 55.1467C64.0226 55.2558 63.9401 55.4135 63.9233 55.585L63.7992 56.859C63.2075 56.9129 62.6146 56.95 62.0198 56.95C61.8518 56.95 61.6907 57.0185 61.5719 57.1404C61.4531 57.2623 61.3864 57.4276 61.3864 57.6C61.3864 57.7724 61.4531 57.9377 61.5719 58.0596C61.6907 58.1815 61.8518 58.25 62.0198 58.25C62.5709 58.25 63.122 58.2201 63.6712 58.1759C63.5783 59.1909 63.5354 60.2101 63.5426 61.2296C63.4577 61.277 63.3716 61.3219 63.2873 61.3726C62.8565 61.6258 62.4439 61.9103 62.0527 62.224L62.0388 62.2357C61.4033 62.7386 60.8386 63.3292 60.3608 63.9907C60.1392 64.3053 60.0139 64.6806 60.0011 65.0685C59.9883 65.4565 60.0884 65.8396 60.2888 66.1689C60.4891 66.4981 60.7806 66.7587 61.1259 66.9172C61.4713 67.0757 61.8548 67.1249 62.2276 67.0587C62.8563 66.936 63.4626 66.7136 64.0247 66.3996C64.1029 66.5258 64.2213 66.6203 64.3597 66.667C64.4982 66.7138 64.6481 66.7099 64.7841 66.6561C64.92 66.6022 65.0337 66.5018 65.1056 66.3717C65.1776 66.2417 65.2034 66.0901 65.1788 65.9427C65.163 65.8484 65.156 65.7535 65.142 65.6586C65.4347 65.4266 65.7127 65.1759 65.9744 64.9079C66.4918 64.3787 66.9393 63.7821 67.3053 63.1334C67.3198 63.108 67.3319 63.0827 67.3464 63.0567C67.4212 62.9202 67.4921 62.7824 67.5567 62.6439C67.5903 62.5718 67.6213 62.4996 67.6524 62.4275C67.7295 62.2491 67.799 62.0674 67.8608 61.8828C67.8811 61.8204 67.8988 61.7586 67.9178 61.6962C67.9495 61.5864 67.9818 61.4772 68.0071 61.3687L68.0103 61.357C68.3133 61.3525 68.613 61.4221 68.8846 61.56C69.1562 61.6978 69.392 61.9001 69.5723 62.1499C70.2178 63.2985 68.9623 65.385 66.7744 66.8C66.7041 66.8455 66.6431 66.9049 66.5951 66.9746C66.547 67.0443 66.5129 67.123 66.4945 67.2063C66.4761 67.2895 66.4739 67.3757 66.4879 67.4598C66.502 67.544 66.5321 67.6245 66.5765 67.6967C66.6209 67.7689 66.6787 67.8314 66.7466 67.8807C66.8145 67.93 66.8913 67.9651 66.9724 67.9839C67.0535 68.0028 67.1375 68.0051 67.2195 67.9906C67.3015 67.9762 67.3799 67.9453 67.4503 67.8998C70.3002 66.0564 71.6836 63.305 70.6682 61.498H70.6688ZM62.0059 65.7789C61.882 65.7994 61.7549 65.782 61.6407 65.7287C61.5264 65.6754 61.4301 65.5886 61.3637 65.4793C61.2974 65.37 61.264 65.2429 61.2678 65.1142C61.2716 64.9855 61.3124 64.8608 61.3851 64.7558C61.7989 64.1864 62.2873 63.6783 62.8363 63.2458L62.8534 63.2322C63.0865 63.0481 63.3283 62.8761 63.5781 62.7167C63.6161 63.4935 63.6877 64.2676 63.7846 65.0398C63.2417 65.3976 62.6384 65.6482 62.0059 65.7789ZM66.649 61.4999C66.5908 61.6724 66.524 61.8416 66.4488 62.0069C66.4134 62.0849 66.3741 62.1623 66.3348 62.2396C66.2736 62.3601 66.2079 62.4801 66.1378 62.5997C66.084 62.6907 66.0289 62.7811 65.97 62.8714C65.7086 63.2726 65.4099 63.6468 65.0781 63.9888C65.0337 64.0343 64.9875 64.0752 64.9425 64.1188C64.8737 63.4267 64.8291 62.733 64.8089 62.0375C65.4029 61.7573 66.0284 61.5536 66.6712 61.4311L66.649 61.4999Z" fill="#FFC500"/>
</g>
<path d="M16.7619 14C14.9333 14 13.4286 15.5048 13.4286 17.3333C13.4286 18.219 13.7905 19.0286 14.381 19.6286C12.9238 20.581 12 22.2095 12 24C12 26.8857 14.3524 29.2381 17.2381 29.2381C18.9143 29.2381 20.5714 28.8 22 27.9619L21.0476 26.3143C19.8857 26.981 18.5714 27.3333 17.2381 27.3333C15.3905 27.3333 13.9048 25.8571 13.9048 24C13.9031 23.2665 14.1441 22.5529 14.5903 21.9707C15.0364 21.3884 15.6627 20.9701 16.3714 20.781L21.3333 19.4476L20.8381 17.6095L16.6 18.7619C15.8857 18.6667 15.3333 18.0762 15.3333 17.3333C15.3333 16.5333 15.9619 15.9048 16.7619 15.9048C17.0095 15.9048 17.2381 15.9714 17.4762 16.0952L18.4286 14.4476C17.9238 14.1524 17.3429 14 16.7619 14Z" fill="#FFC500"/>
<defs>
<clipPath id="clip0">
<rect width="82" height="82" fill="white"/>
</clipPath>
</defs>
</svg>