<svg width="20" height="18" viewBox="0 0 20 18" fill="none" xmlns="http://www.w3.org/2000/svg">
<path d="M0 15.1203V0.402415C0 0.180161 0.180161 0 0.402415 0H19.5976C19.8198 0 20 0.180161 20 0.402415V15.1203C20 15.3425 19.8198 15.5227 19.5976 15.5227H0.402415C0.180161 15.5227 0 15.3425 0 15.1203Z" fill="#5A5A5A"/>
<path d="M1.23459 14.2912H18.7655V1.23169H1.23459V14.2912Z" fill="#FFC709"/>
<path d="M17.1558 1.23169H18.7654V14.2912H17.1558V1.23169Z" fill="#FFD546"/>
<path d="M3.61221 4.05968H14.0165C14.1832 4.05968 14.3183 3.92455 14.3183 3.75787C14.3183 3.59119 14.1832 3.45605 14.0165 3.45605H3.61221C3.44548 3.45605 3.31039 3.59119 3.31039 3.75787C3.31039 3.92455 3.44548 4.05968 3.61221 4.05968Z" fill="#5A5A5A"/>
<path d="M16.3878 5.29175H3.61217C3.44545 5.29175 3.31036 5.42688 3.31036 5.59356C3.31036 5.76024 3.44545 5.89537 3.61217 5.89537H16.3878C16.5545 5.89537 16.6896 5.76024 16.6896 5.59356C16.6896 5.42688 16.5545 5.29175 16.3878 5.29175Z" fill="#5A5A5A"/>
<path d="M10.8707 7.12744H3.61217C3.44545 7.12744 3.31036 7.26257 3.31036 7.42925C3.31036 7.59593 3.44545 7.73106 3.61217 7.73106H10.8707C11.0374 7.73106 11.1725 7.59593 11.1725 7.42925C11.1725 7.26257 11.0374 7.12744 10.8707 7.12744Z" fill="#5A5A5A"/>
<path d="M8.7461 11.6329C8.23383 11.6343 7.72155 11.6355 7.20928 11.6364C7.04473 11.6367 6.88015 11.6369 6.7156 11.637C6.58968 11.6371 6.45379 11.6593 6.34739 11.578C6.22832 11.4871 6.18735 11.3586 6.16011 11.2172C6.10107 10.9107 5.65906 10.9497 5.57805 11.2172C5.5422 11.3356 5.36111 11.6746 5.20292 11.6469C5.1191 11.6322 5.08248 11.5029 5.05149 11.4359C4.99117 11.3056 4.94723 11.1675 4.9096 11.029C4.75073 10.4442 4.71902 9.83349 4.61962 9.23759C4.562 8.89204 4.03528 8.98975 4.02679 9.31784C3.99974 10.3629 3.82888 11.3937 3.45681 12.3733C3.31874 12.7368 3.90204 12.894 4.03886 12.5338C4.18232 12.1561 4.2962 11.7693 4.38457 11.3768C4.43198 11.5198 4.48852 11.6601 4.55753 11.7966C4.73379 12.1449 5.09327 12.351 5.47789 12.1961C5.61516 12.1408 5.74039 12.0441 5.84699 11.9265C5.86204 11.9438 5.87721 11.961 5.89306 11.977C6.18578 12.2725 6.57081 12.2409 6.95371 12.2404C7.55117 12.2396 8.14864 12.2382 8.74614 12.2365C9.13447 12.2355 9.1352 11.6318 8.7461 11.6329Z" fill="#5A5A5A"/>
<path d="M15.4281 17.1907L14.5629 16.7882L13.6977 17.1907V11.9995H15.4281V17.1907Z" fill="#ED6362"/>
<path d="M14.5629 13.0032C14.2576 13.0032 14.0576 12.4835 13.7922 12.3732C13.517 12.2589 13.0098 12.4804 12.8024 12.2726C12.5949 12.0648 12.8161 11.5567 12.7019 11.281C12.5918 11.0151 12.0731 10.8148 12.0731 10.5089C12.0731 10.2031 12.5918 10.0028 12.7019 9.73678C12.8161 9.46109 12.5949 8.95296 12.8024 8.74519C13.0098 8.53742 13.517 8.75895 13.7921 8.64463C14.0576 8.53433 14.2575 8.01465 14.5628 8.01465C14.8681 8.01465 15.0681 8.53433 15.3335 8.64463C15.6087 8.75895 16.116 8.53743 16.3234 8.74523C16.5308 8.953 16.3096 9.46113 16.4238 9.73682C16.5339 10.0028 17.0526 10.2031 17.0526 10.5089C17.0526 10.8148 16.5339 11.0151 16.4238 11.281C16.3096 11.5567 16.5308 12.0649 16.3234 12.2726C16.116 12.4804 15.6087 12.2589 15.3336 12.3732C15.0681 12.4835 14.8682 13.0032 14.5629 13.0032Z" fill="#DAE7EF"/>
<path d="M16.4238 9.73682C16.3096 9.46113 16.5308 8.953 16.3234 8.74523C16.116 8.53747 15.6088 8.75895 15.3335 8.64463C15.0681 8.53433 14.8682 8.01465 14.5628 8.01465C14.2575 8.01465 14.0576 8.53433 13.7921 8.64463C13.7811 8.64918 13.7697 8.65304 13.758 8.65658C14.0392 8.74181 14.5146 8.54571 14.7137 8.74523C14.9211 8.953 14.6999 9.46113 14.8141 9.73682C14.9242 10.0028 15.4429 10.2031 15.4429 10.5089C15.4429 10.8148 14.9242 11.0151 14.8141 11.281C14.6999 11.5567 14.9211 12.0649 14.7137 12.2726C14.5146 12.4721 14.0392 12.2761 13.758 12.3613C13.7697 12.3648 13.7811 12.3687 13.7921 12.3732C14.0576 12.4835 14.2575 13.0032 14.5628 13.0032C14.8682 13.0032 15.068 12.4835 15.3335 12.3732C15.6088 12.2589 16.116 12.4804 16.3233 12.2726C16.5307 12.0649 16.3096 11.5567 16.4237 11.281C16.5338 11.0151 17.0525 10.8148 17.0525 10.5089C17.0526 10.2031 16.5339 10.0028 16.4238 9.73682Z" fill="#DAE7EF"/>
<path d="M14.5629 11.3859C15.0473 11.3859 15.4399 10.9932 15.4399 10.5089C15.4399 10.0245 15.0473 9.63184 14.5629 9.63184C14.0785 9.63184 13.6859 10.0245 13.6859 10.5089C13.6859 10.9932 14.0785 11.3859 14.5629 11.3859Z" fill="#C2CED7"/>
</svg>
