<svg width="40" height="40" viewBox="0 0 40 40" fill="none" xmlns="http://www.w3.org/2000/svg">
<circle cx="20" cy="20" r="20" fill="#FAFAFA"/>
<path d="M18.6955 16.937V18.314H17.6875V19.997H18.6955V25H20.7675V19.997H22.1575C22.1575 19.997 22.2885 19.19 22.3515 18.307H20.7755V17.157C20.7755 16.984 21.0015 16.753 21.2255 16.753H22.3535V15H20.8185C18.6445 15 18.6955 16.685 18.6955 16.937Z" fill="#3C77BF"/>
<path d="M14 12C13.4696 12 12.9609 12.2107 12.5858 12.5858C12.2107 12.9609 12 13.4696 12 14V26C12 26.5304 12.2107 27.0391 12.5858 27.4142C12.9609 27.7893 13.4696 28 14 28H26C26.5304 28 27.0391 27.7893 27.4142 27.4142C27.7893 27.0391 28 26.5304 28 26V14C28 13.4696 27.7893 12.9609 27.4142 12.5858C27.0391 12.2107 26.5304 12 26 12H14ZM14 10H26C27.0609 10 28.0783 10.4214 28.8284 11.1716C29.5786 11.9217 30 12.9391 30 14V26C30 27.0609 29.5786 28.0783 28.8284 28.8284C28.0783 29.5786 27.0609 30 26 30H14C12.9391 30 11.9217 29.5786 11.1716 28.8284C10.4214 28.0783 10 27.0609 10 26V14C10 12.9391 10.4214 11.9217 11.1716 11.1716C11.9217 10.4214 12.9391 10 14 10Z" fill="#3C77BF"/>
</svg>