<svg width="54" height="55" viewBox="0 0 54 55" fill="none" xmlns="http://www.w3.org/2000/svg">
<path fill-rule="evenodd" clip-rule="evenodd" d="M26.9611 0C36.3277 0 43.9191 7.5944 43.9191 16.9611C43.9191 23.3069 40.4324 28.8399 35.271 31.7479C34.8691 31.9733 34.6316 32.3051 34.6316 32.7741V40.1401H19.2875V32.7741C19.2875 32.2808 19.0744 31.9854 18.6571 31.751C13.4897 28.843 10 23.31 10 16.9612C10 7.59441 17.5944 0 26.9611 0V0Z" fill="#FFC709"/>
<path fill-rule="evenodd" clip-rule="evenodd" d="M26.961 0C36.3277 0 43.9191 7.5944 43.9191 16.9611C43.9191 23.3069 40.4324 28.8399 35.271 31.7479C34.8691 31.9733 34.6316 32.3051 34.6316 32.7741V40.1401H31.4099V32.7741C31.4099 32.3051 31.6444 31.9733 32.0464 31.7479C37.2108 28.8399 40.6974 23.3069 40.6974 16.9611C40.6974 8.13645 33.9587 0.889131 25.3503 0.0761621C25.8801 0.0273926 26.416 0 26.961 0V0Z" fill="#ECB80A"/>
<path fill-rule="evenodd" clip-rule="evenodd" d="M34.3332 44.7777V47.6278C34.3332 48.7667 33.4014 49.6985 32.2627 49.6985L26.7876 50.1279L21.6597 49.6985C20.5178 49.6985 19.586 48.7667 19.586 47.6278V44.7777L26.9215 44.1047L34.3332 44.7777Z" fill="#D4DDDE"/>
<path fill-rule="evenodd" clip-rule="evenodd" d="M34.3332 44.7777V47.6279C34.3332 48.7667 33.4014 49.6985 32.2627 49.6985H29.0379C30.1798 49.6985 31.1115 48.7667 31.1115 47.6279V44.7777H34.3332Z" fill="#CAD2D3"/>
<path fill-rule="evenodd" clip-rule="evenodd" d="M22.4725 18.2734H31.4494V40.14H22.4725V18.2734Z" fill="#747474"/>
<path fill-rule="evenodd" clip-rule="evenodd" d="M19.2875 39.6042H34.6316C36.0597 39.6042 37.2291 40.7704 37.2291 42.1985C37.2291 43.6267 36.0597 44.793 34.6316 44.793H19.2875C17.8594 44.793 16.6931 43.6268 16.6931 42.1985C16.6931 40.7704 17.8594 39.6042 19.2875 39.6042ZM32.2625 49.6985C32.2625 52.6279 29.8873 55 26.9609 55C24.0316 55 21.6594 52.6279 21.6594 49.6985H32.2625Z" fill="#C0CACB"/>
<path fill-rule="evenodd" clip-rule="evenodd" d="M31.4099 39.6042H34.6316C36.0597 39.6042 37.2291 40.7704 37.2291 42.1985C37.2291 43.6267 36.0597 44.793 34.6316 44.793H31.4099C32.8381 44.793 34.0043 43.6268 34.0043 42.1985C34.0043 40.7704 32.8381 39.6042 31.4099 39.6042ZM32.2625 49.6985C32.2625 52.6279 29.8873 55 26.9609 55C26.3976 55 25.8587 54.9147 25.3502 54.7502C27.4877 54.0681 29.0377 52.0645 29.0377 49.6985H32.2625Z" fill="#AEB6B7"/>
<path fill-rule="evenodd" clip-rule="evenodd" d="M25.472 18.2734H28.4501V39.5858H25.472V18.2734Z" fill="#9A9A9A"/>
<path fill-rule="evenodd" clip-rule="evenodd" d="M27.3082 8.11819L29.2052 12.768L31.4495 18.2734H26.9611H22.4725L24.7169 12.768L26.614 8.11819H27.3082Z" fill="#FFF9DF"/>
<path fill-rule="evenodd" clip-rule="evenodd" d="M29.2052 12.768L27.3082 8.11809C27.1376 7.69785 26.7936 7.67658 26.6139 8.11809L24.7169 12.768H29.2052Z" fill="#747474"/>
<path d="M5.00977 16.54H1.66992C0.7469 16.54 0 15.7931 0 14.8701C0 13.9471 0.7469 13.2002 1.66992 13.2002H5.00977C5.93279 13.2002 6.67969 13.9471 6.67969 14.8701C6.67969 15.7931 5.93279 16.54 5.00977 16.54Z" fill="#FFCB4A"/>
<path d="M3.33984 7.21196L0.978461 4.85058C0.32619 4.19831 0.32619 3.14147 0.978461 2.4892C1.63073 1.83693 2.68757 1.83693 3.33984 2.4892L5.70122 4.85058C6.3535 5.50286 6.3535 6.55969 5.70122 7.21196C5.04895 7.86424 3.99223 7.86424 3.33984 7.21196Z" fill="#FFCB4A"/>
<path d="M0.978461 27.251C0.32619 26.5988 0.32619 25.5419 0.978461 24.8896L3.33984 22.5283C3.99211 21.876 5.04895 21.876 5.70122 22.5283C6.3535 23.1805 6.3535 24.2374 5.70122 24.8896L3.33984 27.251C2.68757 27.9033 1.63084 27.9033 0.978461 27.251Z" fill="#FFCB4A"/>
<path d="M52.0098 16.54H48.6699C47.7469 16.54 47 15.7931 47 14.8701C47 13.9471 47.7469 13.2002 48.6699 13.2002H52.0098C52.9328 13.2002 53.6797 13.9471 53.6797 14.8701C53.6797 15.7931 52.9328 16.54 52.0098 16.54Z" fill="#FEB552"/>
<path d="M47.9785 7.21196C47.3262 6.55969 47.3262 5.50286 47.9785 4.85058L50.3398 2.4892C50.9921 1.83693 52.049 1.83693 52.7012 2.4892C53.3535 3.14147 53.3535 4.19831 52.7012 4.85058L50.3398 7.21196C49.6876 7.86424 48.6308 7.86424 47.9785 7.21196Z" fill="#FEB552"/>
<path d="M50.3398 27.251L47.9785 24.8896C47.3262 24.2374 47.3262 23.1805 47.9785 22.5283C48.6307 21.876 49.6876 21.876 50.3398 22.5283L52.7012 24.8896C53.3535 25.5419 53.3535 26.5988 52.7012 27.251C52.049 27.9033 50.9922 27.9033 50.3398 27.251Z" fill="#FEB552"/>
</svg>