<?xml version="1.0" encoding="utf-8"?>
<!-- Generator: Adobe Illustrator 23.0.6, SVG Export Plug-In . SVG Version: 6.00 Build 0)  -->
<svg version="1.1" id="Layer_1" xmlns="http://www.w3.org/2000/svg" xmlns:xlink="http://www.w3.org/1999/xlink" x="0px" y="0px"
	 viewBox="0 0 283.46 283.46" style="enable-background:new 0 0 283.46 283.46;" xml:space="preserve">
<style type="text/css">
	.st0{clip-path:url(#SVGID_2_);}
	.st1{clip-path:url(#SVGID_4_);fill:url(#SVGID_5_);}
	.st2{clip-path:url(#SVGID_7_);fill:none;stroke:#FFF200;stroke-width:0.6667;stroke-miterlimit:10;}
	.st3{clip-path:url(#SVGID_9_);fill:url(#SVGID_10_);}
	.st4{clip-path:url(#SVGID_12_);fill:none;stroke:#FFF200;stroke-width:0.6667;stroke-miterlimit:10;}
	.st5{clip-path:url(#SVGID_14_);fill:url(#SVGID_15_);}
	.st6{clip-path:url(#SVGID_17_);fill:none;stroke:#FFF200;stroke-width:0.6667;stroke-miterlimit:10;}
	.st7{filter:url(#Adobe_OpacityMaskFilter);}
	.st8{clip-path:url(#SVGID_19_);fill:url(#SVGID_21_);}
	.st9{clip-path:url(#SVGID_19_);mask:url(#SVGID_20_);fill:url(#SVGID_22_);}
	.st10{clip-path:url(#SVGID_24_);fill:none;stroke:#FFF200;stroke-width:0.6667;stroke-miterlimit:10;}
	.st11{opacity:0.3;clip-path:url(#SVGID_24_);}
	.st12{clip-path:url(#SVGID_26_);fill:#FFFFFF;}
	.st13{clip-path:url(#SVGID_28_);fill:url(#SVGID_29_);}
	.st14{clip-path:url(#SVGID_31_);fill:none;stroke:#FFF200;stroke-width:0.6667;stroke-miterlimit:10;}
	.st15{filter:url(#Adobe_OpacityMaskFilter_1_);}
	.st16{clip-path:url(#SVGID_33_);fill:url(#SVGID_35_);}
	.st17{clip-path:url(#SVGID_33_);mask:url(#SVGID_34_);fill:url(#SVGID_36_);}
	.st18{clip-path:url(#SVGID_38_);fill:none;stroke:#FFF200;stroke-width:0.6667;stroke-miterlimit:10;}
	.st19{clip-path:url(#SVGID_38_);fill:#FFFFFF;}
	.st20{clip-path:url(#SVGID_38_);fill:#001B54;}
</style>
<g>
	<defs>
		<rect id="SVGID_1_" x="0" y="0" width="283.46" height="283.46"/>
	</defs>
	<clipPath id="SVGID_2_">
		<use xlink:href="#SVGID_1_"  style="overflow:visible;"/>
	</clipPath>
	<g class="st0">
		<defs>
			<path id="SVGID_3_" d="M68.39,26.25c-10.58,0-19.16,8.58-19.16,19.16v192.29c0,10.58,8.58,19.16,19.16,19.16h146.75
				c10.58,0,19.16-8.58,19.16-19.16V45.41c0-10.58-8.58-19.16-19.16-19.16H68.39z"/>
		</defs>
		<clipPath id="SVGID_4_">
			<use xlink:href="#SVGID_3_"  style="overflow:visible;"/>
		</clipPath>
		
			<linearGradient id="SVGID_5_" gradientUnits="userSpaceOnUse" x1="-70.6989" y1="354.3322" x2="-70.0322" y2="354.3322" gradientTransform="matrix(0 -345.9036 -345.9036 0 122706.5625 -24198.1465)">
			<stop  offset="0" style="stop-color:#FFF200"/>
			<stop  offset="0.3691" style="stop-color:#FFF001"/>
			<stop  offset="0.5633" style="stop-color:#FEE803"/>
			<stop  offset="0.7166" style="stop-color:#FDDA08"/>
			<stop  offset="0.8486" style="stop-color:#FCC70F"/>
			<stop  offset="0.9658" style="stop-color:#FBAF17"/>
			<stop  offset="1" style="stop-color:#FAA61A"/>
			<stop  offset="1" style="stop-color:#231F20"/>
		</linearGradient>
		<rect x="49.24" y="26.25" class="st1" width="185.06" height="230.6"/>
	</g>
	<g class="st0">
		<defs>
			<rect id="SVGID_6_" x="0" y="0" width="283.46" height="283.46"/>
		</defs>
		<clipPath id="SVGID_7_">
			<use xlink:href="#SVGID_6_"  style="overflow:visible;"/>
		</clipPath>
		<path class="st2" d="M215.14,256.85H68.39c-10.58,0-19.16-8.58-19.16-19.16V45.41c0-10.58,8.58-19.16,19.16-19.16h146.75
			c10.58,0,19.16,8.58,19.16,19.16v192.29C234.3,248.27,225.72,256.85,215.14,256.85z"/>
	</g>
	<g class="st0">
		<defs>
			<path id="SVGID_8_" d="M81.76,221.99c-3.49,0.74-6.85,1.55-10.1,2.41c-6.04,1.61-11.65,3.42-16.73,5.41v5.67
				c0,9.41,7.63,17.03,17.03,17.03h139.61c9.41,0,17.04-7.63,17.04-17.03v-5.64c-5.11-1.99-10.74-3.82-16.81-5.43
				c-3.25-0.87-6.61-1.67-10.1-2.41c-17.59-3.75-38.09-5.9-59.97-5.9C119.85,216.09,99.35,218.24,81.76,221.99"/>
		</defs>
		<clipPath id="SVGID_9_">
			<use xlink:href="#SVGID_8_"  style="overflow:visible;"/>
		</clipPath>
		
			<linearGradient id="SVGID_10_" gradientUnits="userSpaceOnUse" x1="-69.8462" y1="354.3377" x2="-69.1795" y2="354.3377" gradientTransform="matrix(0 -54.6299 -54.6299 0 19499.2031 -3563.1777)">
			<stop  offset="0" style="stop-color:#78B83E"/>
			<stop  offset="0.0622" style="stop-color:#6AAA3B"/>
			<stop  offset="0.2266" style="stop-color:#4C8B33"/>
			<stop  offset="0.3983" style="stop-color:#34722D"/>
			<stop  offset="0.5779" style="stop-color:#226128"/>
			<stop  offset="0.7707" style="stop-color:#185626"/>
			<stop  offset="1" style="stop-color:#155325"/>
			<stop  offset="1" style="stop-color:#155325"/>
		</linearGradient>
		<rect x="54.93" y="216.09" class="st3" width="173.69" height="36.42"/>
	</g>
	<g class="st0">
		<defs>
			<rect id="SVGID_11_" x="0" y="0" width="283.46" height="283.46"/>
		</defs>
		<clipPath id="SVGID_12_">
			<use xlink:href="#SVGID_11_"  style="overflow:visible;"/>
		</clipPath>
		<path class="st4" d="M228.61,229.84v5.64c0,9.41-7.63,17.03-17.04,17.03H71.96c-9.41,0-17.03-7.63-17.03-17.03v-5.67
			c5.09-1.99,10.69-3.8,16.73-5.41c3.25-0.87,6.61-1.67,10.1-2.41c17.59-3.75,38.09-5.9,59.97-5.9c21.89,0,42.39,2.15,59.97,5.9
			c3.49,0.74,6.85,1.55,10.1,2.41C217.87,226.02,223.51,227.85,228.61,229.84z"/>
	</g>
	<g class="st0">
		<defs>
			<path id="SVGID_13_" d="M54.93,161.19v64.15c2.69-1.05,5.52-2.05,8.49-2.99c2.65-0.85,5.4-1.65,8.25-2.41
				c19.61-5.23,43.85-8.31,70.07-8.31c26.23,0,50.46,3.09,70.07,8.31c2.85,0.76,5.6,1.56,8.25,2.41c2.99,0.95,5.85,1.96,8.56,3.02
				v-64.15c-21.61-8.45-52.54-13.75-86.88-13.75C107.43,147.47,76.53,152.75,54.93,161.19"/>
		</defs>
		<clipPath id="SVGID_14_">
			<use xlink:href="#SVGID_13_"  style="overflow:visible;"/>
		</clipPath>
		
			<linearGradient id="SVGID_15_" gradientUnits="userSpaceOnUse" x1="-70.5102" y1="354.3284" x2="-69.8435" y2="354.3284" gradientTransform="matrix(0 -116.84 -116.84 0 41541.5 -8013.0493)">
			<stop  offset="0" style="stop-color:#58AFF6"/>
			<stop  offset="1" style="stop-color:#0470A2"/>
		</linearGradient>
		<rect x="54.93" y="147.47" class="st5" width="173.69" height="77.89"/>
	</g>
	<g class="st0">
		<defs>
			<rect id="SVGID_16_" x="0" y="0" width="283.46" height="283.46"/>
		</defs>
		<clipPath id="SVGID_17_">
			<use xlink:href="#SVGID_16_"  style="overflow:visible;"/>
		</clipPath>
		<path class="st6" d="M228.61,161.21v64.15c-2.71-1.06-5.57-2.07-8.56-3.02c-2.65-0.85-5.4-1.65-8.25-2.41
			c-19.61-5.23-43.85-8.31-70.07-8.31c-26.23,0-50.46,3.09-70.07,8.31c-2.85,0.76-5.6,1.56-8.25,2.41
			c-2.97,0.94-5.79,1.95-8.49,2.99v-64.15c21.61-8.44,52.5-13.72,86.81-13.72C176.07,147.47,207,152.76,228.61,161.21z"/>
	</g>
	<g class="st0">
		<defs>
			<path id="SVGID_18_" d="M71.96,30.59c-9.41,0-17.03,7.63-17.03,17.03v108.41c7.61-2.97,16.37-5.55,26.02-7.64
				c0.63-0.14,1.26-0.27,1.89-0.41c0.14-0.03,0.28-0.05,0.42-0.09c2.33-0.48,4.71-0.93,7.13-1.35c1.4-0.25,2.81-0.48,4.24-0.71
				c0.43-0.07,0.87-0.13,1.31-0.2c0.32-0.05,0.65-0.1,0.98-0.15c0.52-0.07,1.04-0.15,1.57-0.23c0.07-0.01,0.14-0.01,0.21-0.03
				c0.27-0.03,0.54-0.07,0.82-0.11c0.09-0.01,0.17-0.03,0.27-0.03c0.74-0.11,1.48-0.21,2.23-0.3c0.75-0.1,1.51-0.19,2.27-0.29
				c0.9-0.11,1.8-0.21,2.71-0.31c0.03-0.01,0.07-0.01,0.11-0.01c0.75-0.08,1.51-0.16,2.27-0.24c2.19-0.23,4.41-0.43,6.65-0.61
				c1.49-0.12,3.01-0.23,4.53-0.33c0.27-0.02,0.53-0.03,0.8-0.05c0.03,0,0.07-0.01,0.1-0.01c6.59-0.41,13.37-0.63,20.28-0.63
				c6.91,0,13.69,0.21,20.27,0.63c0.91,0.05,1.82,0.12,2.73,0.18c3.16,0.23,6.27,0.49,9.34,0.81c0.07,0.01,0.14,0.01,0.21,0.02
				c0.47,0.05,0.94,0.09,1.41,0.15c0.38,0.04,0.76,0.08,1.14,0.13c0.1,0.01,0.2,0.02,0.3,0.03c0.48,0.05,0.95,0.11,1.43,0.16
				c0.05,0.01,0.1,0.01,0.15,0.02c0.23,0.03,0.46,0.05,0.69,0.09c0.7,0.08,1.39,0.17,2.09,0.26c0.01,0,0.03,0.01,0.05,0.01
				c0.79,0.1,1.57,0.2,2.35,0.31c0.82,0.11,1.63,0.23,2.43,0.35c0.49,0.07,0.97,0.14,1.45,0.21c3.13,0.48,6.19,1.01,9.18,1.58
				c0.81,0.15,1.61,0.31,2.41,0.47c1.06,0.21,2.11,0.43,3.14,0.65c9.69,2.11,18.47,4.7,26.1,7.68V47.62
				c0-9.41-7.63-17.03-17.04-17.03H71.96z"/>
		</defs>
		<clipPath id="SVGID_19_">
			<use xlink:href="#SVGID_18_"  style="overflow:visible;"/>
		</clipPath>
		<defs>
			<filter id="Adobe_OpacityMaskFilter" filterUnits="userSpaceOnUse" x="54.93" y="30.59" width="173.69" height="125.47">
				<feColorMatrix  type="matrix" values="1 0 0 0 0  0 1 0 0 0  0 0 1 0 0  0 0 0 1 0"/>
			</filter>
		</defs>
		<mask maskUnits="userSpaceOnUse" x="54.93" y="30.59" width="173.69" height="125.47" id="SVGID_20_">
			<g class="st7">
				
					<linearGradient id="SVGID_21_" gradientUnits="userSpaceOnUse" x1="-70.8297" y1="354.3287" x2="-70.163" y2="354.3287" gradientTransform="matrix(0 -188.21 -188.21 0 66829.9766 -13174.8008)">
					<stop  offset="0" style="stop-color:#FAFAFA"/>
					<stop  offset="1" style="stop-color:#FFFFFF"/>
				</linearGradient>
				<rect x="54.93" y="30.59" class="st8" width="173.69" height="125.47"/>
			</g>
		</mask>
		
			<linearGradient id="SVGID_22_" gradientUnits="userSpaceOnUse" x1="-70.8297" y1="354.3287" x2="-70.163" y2="354.3287" gradientTransform="matrix(0 -188.21 -188.21 0 66829.9766 -13174.8008)">
			<stop  offset="0" style="stop-color:#77C7F8"/>
			<stop  offset="0.1548" style="stop-color:#71C4F6"/>
			<stop  offset="0.3517" style="stop-color:#62BBF2"/>
			<stop  offset="0.5712" style="stop-color:#48ACEA"/>
			<stop  offset="0.8055" style="stop-color:#2498DF"/>
			<stop  offset="1" style="stop-color:#0084D5"/>
		</linearGradient>
		<rect x="54.93" y="30.59" class="st9" width="173.69" height="125.47"/>
	</g>
	<g class="st0">
		<defs>
			<rect id="SVGID_23_" x="0" y="0" width="283.46" height="283.46"/>
		</defs>
		<clipPath id="SVGID_24_">
			<use xlink:href="#SVGID_23_"  style="overflow:visible;"/>
		</clipPath>
		<path class="st10" d="M228.61,47.62v108.44c-7.63-2.98-16.41-5.57-26.1-7.68c-1.03-0.23-2.08-0.45-3.14-0.65
			c-0.8-0.17-1.6-0.32-2.41-0.47c-2.99-0.57-6.05-1.1-9.18-1.58c-0.48-0.07-0.96-0.15-1.45-0.21c-0.8-0.12-1.61-0.23-2.43-0.35
			c-0.78-0.11-1.56-0.21-2.35-0.31c-0.01,0-0.03-0.01-0.05-0.01c-0.69-0.09-1.39-0.18-2.09-0.26c-0.23-0.03-0.46-0.06-0.69-0.09
			c-0.05-0.01-0.1-0.01-0.15-0.02c-0.48-0.05-0.95-0.11-1.43-0.16c-0.1-0.01-0.2-0.03-0.3-0.03c-0.38-0.05-0.76-0.09-1.14-0.13
			c-0.47-0.05-0.94-0.1-1.41-0.15c-0.07-0.01-0.14-0.01-0.21-0.02c-3.07-0.32-6.18-0.59-9.34-0.81c-0.91-0.06-1.81-0.13-2.73-0.18
			c-6.59-0.42-13.36-0.63-20.27-0.63c-6.91,0-13.69,0.21-20.28,0.63c-0.03,0-0.07,0.01-0.1,0.01c-0.27,0.02-0.53,0.03-0.8,0.05
			c-1.52,0.1-3.03,0.21-4.53,0.33c-2.25,0.18-4.47,0.38-6.65,0.61c-0.76,0.08-1.52,0.16-2.27,0.24c-0.03,0.01-0.07,0.01-0.11,0.01
			c-0.91,0.1-1.81,0.21-2.71,0.31c-0.77,0.09-1.52,0.19-2.27,0.29c-0.75,0.09-1.49,0.19-2.23,0.3c-0.09,0.01-0.18,0.02-0.27,0.03
			c-0.28,0.04-0.55,0.08-0.82,0.11c-0.07,0.01-0.14,0.02-0.21,0.03c-0.53,0.08-1.05,0.16-1.57,0.23c-0.33,0.05-0.66,0.09-0.98,0.15
			c-0.44,0.07-0.87,0.13-1.31,0.2c-1.43,0.23-2.84,0.46-4.24,0.71c-2.42,0.42-4.8,0.87-7.13,1.35c-0.14,0.03-0.28,0.06-0.42,0.09
			c-0.63,0.13-1.27,0.27-1.89,0.41c-9.65,2.09-18.41,4.67-26.02,7.64V47.62c0-9.41,7.63-17.03,17.03-17.03h139.61
			C220.98,30.59,228.61,38.21,228.61,47.62z"/>
		<g class="st11">
			<g>
				<defs>
					<rect id="SVGID_25_" x="54.93" y="30.59" width="173.69" height="111.4"/>
				</defs>
				<clipPath id="SVGID_26_">
					<use xlink:href="#SVGID_25_"  style="overflow:visible;"/>
				</clipPath>
				<polygon class="st12" points="147.77,30.59 145.69,72.89 141.73,70.37 137.78,72.89 135.7,30.59 				"/>
				<polygon class="st12" points="125.59,80.65 119.23,84.71 101.49,30.59 114.47,30.59 				"/>
				<path class="st12" d="M109.17,91.12l-5.81,3.7L62.93,33.18c2.61-1.65,5.71-2.59,9.03-2.59h5.52L109.17,91.12z"/>
				<polygon class="st12" points="92.95,101.45 86.81,105.35 54.93,77.5 54.93,60.99 				"/>
				<polygon class="st12" points="75.53,112.54 67.99,117.35 54.93,110.97 54.93,99.85 				"/>
				<polygon class="st12" points="80.95,119.07 80.95,123.67 71.51,119.07 				"/>
				<polygon class="st12" points="80.95,135.67 80.95,141.99 54.93,137.13 54.93,128.11 				"/>
				<polygon class="st12" points="181.97,30.59 164.23,84.71 157.87,80.65 168.99,30.59 				"/>
				<path class="st12" d="M220.55,33.15l-40.45,61.67l-5.81-3.7l31.69-60.53h5.59C214.87,30.59,217.95,31.52,220.55,33.15"/>
				<polygon class="st12" points="228.61,60.91 228.61,77.43 196.65,105.35 190.51,101.45 				"/>
				<polygon class="st12" points="228.61,99.8 228.61,110.93 215.47,117.35 207.93,112.55 				"/>
				<polygon class="st12" points="228.61,128.09 228.61,137.12 202.51,141.99 202.51,135.68 				"/>
				<polygon class="st12" points="211.95,119.07 202.51,123.67 202.51,119.07 				"/>
			</g>
		</g>
	</g>
	<g class="st0">
		<defs>
			<path id="SVGID_27_" d="M137.78,72.89l-12.19,7.76l-6.36,4.05l-10.07,6.41l-5.81,3.7l-10.41,6.63l-6.14,3.91l-11.28,7.19
				l-7.55,4.81l-2.7,1.72h15.66v29.33c0.63-0.14,1.26-0.27,1.89-0.41c0.14-0.03,0.28-0.05,0.42-0.09c2.33-0.48,4.71-0.93,7.13-1.35
				c1.4-0.25,2.81-0.48,4.24-0.71c0.43-0.07,0.87-0.13,1.31-0.2c0.32-0.05,0.65-0.1,0.98-0.15c0.52-0.07,1.04-0.15,1.57-0.23
				c0.07-0.01,0.14-0.01,0.21-0.03c0.27-0.03,0.54-0.07,0.82-0.11c0.09-0.01,0.17-0.03,0.27-0.03c0.74-0.11,1.48-0.21,2.23-0.3
				c0.75-0.1,1.51-0.19,2.27-0.29c0.9-0.11,1.8-0.21,2.71-0.31c0.03-0.01,0.07-0.01,0.11-0.01c0.75-0.08,1.51-0.16,2.27-0.24
				c2.19-0.23,4.41-0.43,6.65-0.61c1.49-0.12,3.01-0.23,4.53-0.33c0.27-0.02,0.53-0.03,0.8-0.05c0.03,0,0.07-0.01,0.1-0.01v-12.81
				l3.64-2.17l2.56-1.53l4.4-2.63l2.75-1.64l5.24-3.12l1.69-1.01l1.69,1.01l5.23,3.12l2.76,1.64l4.4,2.63l2.56,1.53l3.63,2.17v12.82
				c0.91,0.05,1.82,0.12,2.73,0.18c3.16,0.23,6.27,0.49,9.34,0.81c0.07,0.01,0.14,0.01,0.21,0.02c0.47,0.05,0.94,0.09,1.41,0.15
				c0.38,0.04,0.76,0.08,1.14,0.13c0.1,0.01,0.2,0.02,0.3,0.03c0.48,0.05,0.95,0.11,1.43,0.16c0.05,0.01,0.1,0.01,0.15,0.02
				c0.23,0.03,0.46,0.05,0.69,0.09c0.7,0.08,1.39,0.17,2.09,0.26c0.01,0,0.03,0.01,0.05,0.01c0.79,0.1,1.57,0.2,2.35,0.31
				c0.82,0.11,1.63,0.23,2.43,0.35c0.49,0.07,0.97,0.14,1.45,0.21c3.13,0.48,6.19,1.01,9.18,1.58c0.81,0.15,1.61,0.31,2.41,0.47
				c1.06,0.21,2.11,0.43,3.14,0.65v-29.31h15.66l-2.7-1.72l-7.54-4.8l-11.28-7.19l-6.14-3.91l-10.41-6.63l-5.81-3.7l-10.07-6.41
				l-6.35-4.05l-12.19-7.76l-3.95-2.52L137.78,72.89z"/>
		</defs>
		<clipPath id="SVGID_28_">
			<use xlink:href="#SVGID_27_"  style="overflow:visible;"/>
		</clipPath>
		
			<linearGradient id="SVGID_29_" gradientUnits="userSpaceOnUse" x1="-70.8402" y1="354.3286" x2="-70.1735" y2="354.3286" gradientTransform="matrix(0 -117.03 -117.03 0 41608.8047 -8142.0356)">
			<stop  offset="0" style="stop-color:#FEEA03"/>
			<stop  offset="2.700000e-07" style="stop-color:#FEEA03"/>
			<stop  offset="0.3445" style="stop-color:#FEE704"/>
			<stop  offset="0.5533" style="stop-color:#FDDF07"/>
			<stop  offset="0.7259" style="stop-color:#FDD10C"/>
			<stop  offset="0.8779" style="stop-color:#FBBC12"/>
			<stop  offset="1" style="stop-color:#FAA61A"/>
		</linearGradient>
		<rect x="65.29" y="70.37" class="st13" width="152.89" height="78.02"/>
	</g>
	<g class="st0">
		<defs>
			<rect id="SVGID_30_" x="0" y="0" width="283.46" height="283.46"/>
		</defs>
		<clipPath id="SVGID_31_">
			<use xlink:href="#SVGID_30_"  style="overflow:visible;"/>
		</clipPath>
		<path class="st14" d="M218.17,119.07h-15.66v29.31c-1.03-0.23-2.08-0.45-3.14-0.65c-0.8-0.17-1.6-0.32-2.41-0.47
			c-2.99-0.57-6.05-1.1-9.18-1.58c-0.48-0.07-0.96-0.15-1.45-0.21c-0.8-0.12-1.61-0.23-2.43-0.35c-0.78-0.11-1.56-0.21-2.35-0.31
			c-0.01,0-0.03-0.01-0.05-0.01c-0.69-0.09-1.39-0.18-2.09-0.26c-0.23-0.03-0.46-0.06-0.69-0.09c-0.05-0.01-0.1-0.01-0.15-0.02
			c-0.48-0.05-0.95-0.11-1.43-0.16c-0.1-0.01-0.2-0.03-0.3-0.03c-0.38-0.05-0.76-0.09-1.14-0.13c-0.47-0.05-0.94-0.1-1.41-0.15
			c-0.07-0.01-0.14-0.01-0.21-0.02c-3.07-0.32-6.18-0.59-9.34-0.81c-0.91-0.06-1.81-0.13-2.73-0.18v-12.82l-3.63-2.17l-2.56-1.53
			l-4.4-2.63l-2.76-1.64l-5.23-3.12l-1.69-1.01l-1.69,1.01l-5.24,3.12l-2.75,1.64l-4.4,2.63l-2.56,1.53l-3.64,2.17v12.81
			c-0.03,0-0.07,0.01-0.1,0.01c-0.27,0.02-0.53,0.03-0.8,0.05c-1.52,0.1-3.03,0.21-4.53,0.33c-2.25,0.18-4.47,0.38-6.65,0.61
			c-0.76,0.08-1.52,0.16-2.27,0.24c-0.03,0.01-0.07,0.01-0.11,0.01c-0.91,0.1-1.81,0.21-2.71,0.31c-0.77,0.09-1.52,0.19-2.27,0.29
			c-0.75,0.09-1.49,0.19-2.23,0.3c-0.09,0.01-0.18,0.02-0.27,0.03c-0.28,0.04-0.55,0.08-0.82,0.11c-0.07,0.01-0.14,0.02-0.21,0.03
			c-0.53,0.08-1.05,0.16-1.57,0.23c-0.33,0.05-0.66,0.09-0.98,0.15c-0.44,0.07-0.87,0.13-1.31,0.2c-1.43,0.23-2.84,0.46-4.24,0.71
			c-2.42,0.42-4.8,0.87-7.13,1.35c-0.14,0.03-0.28,0.06-0.42,0.09c-0.63,0.13-1.27,0.27-1.89,0.41v-29.33H65.29l2.7-1.72l7.55-4.81
			l11.28-7.19l6.14-3.91l10.41-6.63l5.81-3.7l10.07-6.41l6.36-4.05l12.19-7.76l3.95-2.52l3.95,2.52l12.19,7.76l6.35,4.05l10.07,6.41
			l5.81,3.7l10.41,6.63l6.14,3.91l11.28,7.19l7.54,4.8L218.17,119.07z"/>
	</g>
	<g class="st0">
		<defs>
			<path id="SVGID_32_" d="M121.45,130.13v12.81c6.59-0.41,13.37-0.63,20.28-0.63c6.91,0,13.69,0.21,20.27,0.63v-12.82l-20.27-12.09
				L121.45,130.13z"/>
		</defs>
		<clipPath id="SVGID_33_">
			<use xlink:href="#SVGID_32_"  style="overflow:visible;"/>
		</clipPath>
		<defs>
			<filter id="Adobe_OpacityMaskFilter_1_" filterUnits="userSpaceOnUse" x="121.45" y="118.04" width="40.55" height="24.91">
				<feColorMatrix  type="matrix" values="1 0 0 0 0  0 1 0 0 0  0 0 1 0 0  0 0 0 1 0"/>
			</filter>
		</defs>
		<mask maskUnits="userSpaceOnUse" x="121.45" y="118.04" width="40.55" height="24.91" id="SVGID_34_">
			<g class="st15">
				
					<linearGradient id="SVGID_35_" gradientUnits="userSpaceOnUse" x1="-70.698" y1="354.425" x2="-70.0313" y2="354.425" gradientTransform="matrix(-60.83 0 0 60.83 -4138.5503 -21429.1836)">
					<stop  offset="0" style="stop-color:#FAFAFA"/>
					<stop  offset="1" style="stop-color:#FFFFFF"/>
				</linearGradient>
				<rect x="121.45" y="118.04" class="st16" width="40.55" height="24.91"/>
			</g>
		</mask>
		
			<linearGradient id="SVGID_36_" gradientUnits="userSpaceOnUse" x1="-70.6974" y1="354.4254" x2="-70.0308" y2="354.4254" gradientTransform="matrix(-60.83 0 0 60.83 -4138.519 -21429.2051)">
			<stop  offset="0" style="stop-color:#77C7F8"/>
			<stop  offset="0.1548" style="stop-color:#71C4F6"/>
			<stop  offset="0.3517" style="stop-color:#62BBF2"/>
			<stop  offset="0.5712" style="stop-color:#48ACEA"/>
			<stop  offset="0.8055" style="stop-color:#2498DF"/>
			<stop  offset="1" style="stop-color:#0084D5"/>
		</linearGradient>
		<rect x="121.45" y="118.04" class="st17" width="40.55" height="24.91"/>
	</g>
	<g class="st0">
		<defs>
			<rect id="SVGID_37_" x="0" y="0" width="283.46" height="283.46"/>
		</defs>
		<clipPath id="SVGID_38_">
			<use xlink:href="#SVGID_37_"  style="overflow:visible;"/>
		</clipPath>
		<path class="st18" d="M162.01,130.13v12.82c-6.59-0.42-13.36-0.63-20.27-0.63c-6.91,0-13.69,0.21-20.28,0.63v-12.81l20.28-12.09
			L162.01,130.13z"/>
		<path class="st19" d="M83.86,62.78c0,2.3-1.86,4.16-4.16,4.16c-2.3,0-4.16-1.86-4.16-4.16c0-2.3,1.86-4.16,4.16-4.16
			C82,58.62,83.86,60.48,83.86,62.78"/>
		<path class="st19" d="M201.83,62.88c0,2.3-1.86,4.16-4.16,4.16c-2.3,0-4.16-1.86-4.16-4.16c0-2.3,1.86-4.16,4.16-4.16
			C199.97,58.72,201.83,60.58,201.83,62.88"/>
		<path class="st19" d="M91.56,53.07c-0.04-0.17,0.06-0.36,0.27-0.41c2.19-0.56,3.29-0.82,5.49-1.32c2.21-0.5,4.36,0.79,4.78,2.83
			c0.32,1.58-0.51,3.07-1.93,4c1.36,1.52,2.02,2.29,3.34,3.83c0.17,0.2,0.1,0.5-0.19,0.56c-0.92,0.19-1.39,0.29-2.31,0.49
			c-0.14,0.03-0.26-0.03-0.31-0.09c-1.32-1.6-2-2.4-3.36-3.99c-0.49,0.12-0.73,0.17-1.22,0.29c0.42,1.73,0.63,2.6,1.05,4.34
			c0.04,0.17-0.08,0.36-0.25,0.4c-0.82,0.2-1.23,0.3-2.05,0.51c-0.19,0.05-0.37-0.07-0.41-0.24C93.29,59.8,92.72,57.56,91.56,53.07
			 M98.24,56.49c0.74-0.17,1.22-0.95,1.06-1.67c-0.16-0.72-0.92-1.16-1.67-0.99c-1.08,0.24-1.61,0.37-2.69,0.63
			c0.26,1.06,0.38,1.59,0.64,2.65C96.65,56.86,97.18,56.73,98.24,56.49"/>
		<path class="st19" d="M110.65,48.96c-0.03-0.17,0.12-0.35,0.3-0.38c0.91-0.13,1.37-0.2,2.28-0.32c0.2-0.03,0.37,0.11,0.4,0.28
			c0.37,2.79,0.55,4.19,0.92,6.98c0.16,1.21,1.2,2.05,2.46,1.9c1.27-0.15,2.11-1.22,1.97-2.43c-0.3-2.8-0.46-4.2-0.76-7
			c-0.02-0.17,0.11-0.34,0.32-0.37c0.91-0.1,1.37-0.14,2.29-0.23c0.19-0.02,0.37,0.12,0.38,0.3c0.27,2.86,0.4,4.29,0.67,7.15
			c0.25,2.63-1.78,5.02-4.54,5.35c-2.74,0.33-5.26-1.51-5.65-4.12C111.27,53.22,111.06,51.8,110.65,48.96"/>
		<path class="st19" d="M132.69,46.45c0.01-0.16,0.18-0.29,0.33-0.29c0.12,0,0.18,0,0.3-0.01c0.09,0,0.27,0.06,0.33,0.17
			c1.83,3.01,2.71,4.52,4.4,7.56h0.04c1.69-3.05,2.56-4.57,4.37-7.58c0.06-0.1,0.23-0.17,0.33-0.17l0.3,0.01
			c0.15,0,0.32,0.13,0.33,0.29c0.74,4.76,1.09,7.14,1.73,11.91c0.03,0.23-0.14,0.38-0.35,0.38c-0.84-0.03-1.26-0.04-2.1-0.06
			c-0.16,0-0.32-0.15-0.33-0.29c-0.28-2.19-0.42-3.28-0.72-5.46c-0.01,0-0.02,0-0.04,0c-1.27,2.27-1.88,3.4-3.08,5.69
			c-0.05,0.11-0.21,0.19-0.3,0.19c-0.13,0-0.19,0-0.32,0c-0.11,0-0.25-0.09-0.3-0.19c-1.21-2.28-1.84-3.42-3.12-5.68
			c-0.01,0-0.02,0-0.04,0c-0.28,2.19-0.41,3.28-0.68,5.47c-0.01,0.14-0.15,0.29-0.33,0.29c-0.84,0.02-1.26,0.03-2.1,0.06
			c-0.21,0.01-0.38-0.14-0.35-0.37C131.63,53.59,131.96,51.21,132.69,46.45"/>
		<path class="st19" d="M152.53,58.37c2.53-4.4,3.86-6.57,6.65-10.88c0.07-0.1,0.2-0.17,0.33-0.15c0.07,0.01,0.11,0.01,0.18,0.02
			c0.13,0.01,0.25,0.11,0.29,0.22c1.75,4.82,2.56,7.25,4.04,12.1c0.07,0.23-0.1,0.43-0.35,0.4c-0.76-0.11-1.14-0.16-1.9-0.26
			c-0.31-0.04-0.43-0.16-0.54-0.5c-0.18-0.57-0.27-0.85-0.45-1.42c-1.88-0.24-2.82-0.34-4.7-0.54c-0.3,0.52-0.46,0.78-0.76,1.3
			c-0.11,0.2-0.31,0.38-0.66,0.35c-0.76-0.07-1.13-0.11-1.89-0.17C152.52,58.82,152.41,58.58,152.53,58.37 M160.03,55.47
			c-0.4-1.18-0.6-1.77-1.01-2.95c-0.01,0-0.01,0-0.02,0c-0.66,1.06-0.99,1.59-1.63,2.65C158.43,55.28,158.96,55.34,160.03,55.47"/>
		<path class="st19" d="M174.32,50.36c0.03-0.17,0.23-0.29,0.41-0.25c0.87,0.17,1.31,0.26,2.18,0.45c0.2,0.04,0.31,0.23,0.28,0.4
			c-0.37,1.71-0.55,2.56-0.91,4.27c2.04,0.44,3.06,0.67,5.09,1.16c0.41-1.7,0.62-2.55,1.02-4.24c0.04-0.17,0.22-0.28,0.42-0.24
			c0.87,0.21,1.3,0.32,2.16,0.54c0.18,0.05,0.31,0.24,0.26,0.41c-1.14,4.44-1.71,6.66-2.85,11.11c-0.04,0.17-0.24,0.28-0.41,0.24
			c-0.81-0.21-1.22-0.31-2.03-0.51c-0.19-0.05-0.29-0.23-0.25-0.4c0.43-1.77,0.64-2.66,1.07-4.43c-2.01-0.48-3.01-0.71-5.03-1.15
			l-0.95,4.45c-0.04,0.17-0.21,0.29-0.4,0.25c-0.82-0.17-1.23-0.26-2.05-0.42c-0.17-0.03-0.3-0.22-0.26-0.39
			C172.97,57.11,173.42,54.86,174.32,50.36"/>
		<path class="st19" d="M72.03,232.56c0-0.15,0.13-0.28,0.28-0.28h1.82c0.16,0,0.28,0.13,0.28,0.28v6.01c0,1.04,0.77,1.87,1.82,1.87
			c1.07,0,1.85-0.83,1.85-1.87v-6.01c0-0.15,0.12-0.28,0.28-0.28h1.82c0.15,0,0.28,0.13,0.28,0.28v6.13c0,2.25-1.9,4.12-4.24,4.12
			c-2.33,0-4.21-1.87-4.21-4.12V232.56z"/>
		<path class="st19" d="M82.86,232.39c0-0.15,0.13-0.27,0.28-0.27h0.37l5.92,5.7h0.02v-5.27c0-0.15,0.12-0.28,0.28-0.28h1.78
			c0.15,0,0.28,0.13,0.28,0.28v9.98c0,0.15-0.13,0.27-0.28,0.27h-0.24c-0.04,0-0.16-0.04-0.19-0.07l-5.86-5.89H85.2v5.53
			c0,0.15-0.12,0.28-0.28,0.28h-1.76c-0.15,0-0.28-0.13-0.28-0.28L82.86,232.39z"/>
		<path class="st19" d="M95.67,234.46h-2.12c-0.16,0-0.28-0.13-0.28-0.28v-1.62c0-0.15,0.12-0.28,0.28-0.28h6.58
			c0.16,0,0.28,0.13,0.28,0.28v1.62c0,0.15-0.12,0.28-0.28,0.28h-2.12v7.92c0,0.15-0.13,0.28-0.28,0.28h-1.78
			c-0.15,0-0.28-0.13-0.28-0.28V234.46z"/>
		<path class="st19" d="M101.75,232.56c0-0.15,0.13-0.28,0.28-0.28h1.82c0.16,0,0.28,0.13,0.28,0.28v6.01
			c0,1.04,0.77,1.87,1.82,1.87c1.07,0,1.85-0.83,1.85-1.87v-6.01c0-0.15,0.12-0.28,0.28-0.28h1.82c0.15,0,0.28,0.13,0.28,0.28v6.13
			c0,2.25-1.9,4.12-4.24,4.12c-2.33,0-4.21-1.87-4.21-4.12V232.56z"/>
		<path class="st19" d="M112.6,232.63c0-0.19,0.15-0.36,0.36-0.36h1.74c0.19,0,0.36,0.16,0.36,0.36v3.9l3.29-4.11
			c0.06-0.07,0.19-0.15,0.28-0.15h1.87c0.28,0,0.43,0.33,0.27,0.55l-3.47,4.35l3.78,4.92c0.16,0.22,0,0.55-0.28,0.55h-2.05
			c-0.1,0-0.24-0.06-0.27-0.1l-3.43-4.66v4.42c0,0.19-0.16,0.36-0.36,0.36h-1.74c-0.21,0-0.36-0.16-0.36-0.36V232.63z"/>
		<path class="st19" d="M124.52,242.27l4.64-9.98c0.04-0.09,0.15-0.16,0.25-0.16h0.15c0.1,0,0.21,0.07,0.25,0.16l4.64,9.98
			c0.09,0.19-0.03,0.39-0.25,0.39h-1.65c-0.27,0-0.39-0.09-0.52-0.37l-0.53-1.17h-4.03l-0.53,1.19c-0.07,0.18-0.24,0.36-0.53,0.36
			h-1.63C124.55,242.66,124.44,242.47,124.52,242.27 M130.62,239.1l-1.13-2.45h-0.01l-1.11,2.45H130.62z"/>
		<path class="st19" d="M135.67,232.39c0-0.15,0.13-0.27,0.28-0.27h0.37l5.92,5.7h0.02v-5.27c0-0.15,0.12-0.28,0.28-0.28h1.78
			c0.15,0,0.28,0.13,0.28,0.28v9.98c0,0.15-0.13,0.27-0.28,0.27h-0.24c-0.04,0-0.16-0.04-0.19-0.07l-5.86-5.89h-0.01v5.53
			c0,0.15-0.12,0.28-0.28,0.28h-1.76c-0.15,0-0.28-0.13-0.28-0.28L135.67,232.39z"/>
		<path class="st19" d="M145.81,242.27l4.64-9.98c0.04-0.09,0.15-0.16,0.25-0.16h0.15c0.1,0,0.21,0.07,0.25,0.16l4.64,9.98
			c0.09,0.19-0.03,0.39-0.25,0.39h-1.65c-0.27,0-0.39-0.09-0.52-0.37l-0.53-1.17h-4.03l-0.53,1.19c-0.07,0.18-0.24,0.36-0.53,0.36
			h-1.63C145.84,242.66,145.72,242.47,145.81,242.27 M151.91,239.1l-1.13-2.45h-0.01l-1.11,2.45H151.91z"/>
		<path class="st19" d="M156.97,232.63c0-0.19,0.15-0.36,0.36-0.36h1.74c0.19,0,0.36,0.16,0.36,0.36v3.9l3.29-4.11
			c0.06-0.07,0.19-0.15,0.28-0.15h1.87c0.28,0,0.43,0.33,0.27,0.55l-3.47,4.35l3.78,4.92c0.16,0.22,0,0.55-0.28,0.55h-2.05
			c-0.1,0-0.24-0.06-0.27-0.1l-3.43-4.66v4.42c0,0.19-0.16,0.36-0.36,0.36h-1.74c-0.21,0-0.36-0.16-0.36-0.36V232.63z"/>
		<path class="st19" d="M171.25,232.36c0.01-0.13,0.15-0.24,0.27-0.24h0.24c0.07,0,0.21,0.06,0.25,0.15l3.44,6.41h0.03l3.44-6.41
			c0.04-0.09,0.18-0.15,0.25-0.15h0.24c0.12,0,0.25,0.1,0.27,0.24l1.68,9.97c0.03,0.19-0.1,0.33-0.28,0.33h-1.75
			c-0.13,0-0.27-0.12-0.28-0.24l-0.67-4.58h-0.03l-2.49,4.81c-0.04,0.09-0.18,0.16-0.25,0.16h-0.27c-0.09,0-0.21-0.07-0.25-0.16
			l-2.51-4.81h-0.03l-0.65,4.58c-0.01,0.12-0.13,0.24-0.28,0.24h-1.75c-0.18,0-0.31-0.13-0.28-0.33L171.25,232.36z"/>
		<path class="st19" d="M183.1,232.56c0-0.15,0.13-0.28,0.28-0.28h1.82c0.16,0,0.28,0.13,0.28,0.28v6.01c0,1.04,0.77,1.87,1.82,1.87
			c1.07,0,1.85-0.83,1.85-1.87v-6.01c0-0.15,0.12-0.28,0.28-0.28h1.82c0.15,0,0.28,0.13,0.28,0.28v6.13c0,2.25-1.9,4.12-4.24,4.12
			c-2.33,0-4.21-1.87-4.21-4.12V232.56z"/>
		<path class="st19" d="M193.95,232.56c0-0.15,0.12-0.28,0.27-0.28h3.62c2.86,0,5.21,2.33,5.21,5.18c0,2.88-2.34,5.21-5.21,5.21
			h-3.62c-0.15,0-0.27-0.13-0.27-0.28V232.56z M197.69,240.46c1.68,0,2.89-1.32,2.89-3.01c0-1.68-1.22-3-2.89-3h-1.42v6.01H197.69z"
			/>
		<path class="st19" d="M203.41,242.27l4.64-9.98c0.04-0.09,0.15-0.16,0.25-0.16h0.15c0.1,0,0.21,0.07,0.25,0.16l4.64,9.98
			c0.09,0.19-0.03,0.39-0.25,0.39h-1.65c-0.27,0-0.39-0.09-0.52-0.37l-0.53-1.17h-4.03l-0.53,1.19c-0.07,0.18-0.24,0.36-0.53,0.36
			h-1.63C203.44,242.66,203.32,242.47,203.41,242.27 M209.51,239.1l-1.13-2.45h-0.01l-1.11,2.45H209.51z"/>
		<path class="st20" d="M221.86,205.2l-9.83,14.45c-0.07-0.02-0.15-0.04-0.23-0.06c-3.69-0.99-7.55-1.89-11.55-2.71
			c-17.26-3.57-37.23-5.6-58.53-5.6c-17.29,0-33.7,1.34-48.51,3.75c-7.65,1.25-14.88,2.78-21.57,4.56
			c-0.02,0.01-0.03,0.01-0.05,0.01l-9.37-17.75c-0.19-0.31-0.36-0.64-0.5-1.01c-0.07-0.19-0.14-0.38-0.2-0.59
			c-0.05-0.2-0.11-0.41-0.16-0.62c-0.04-0.21-0.08-0.42-0.11-0.64c-0.04-0.25-0.08-0.49-0.1-0.75c-0.04-0.49-0.07-1-0.07-1.54v-0.09
			c0.01-1.38,0.01-2.08,0.02-3.46c2.08-0.45,3.13-0.66,5.21-1.07l2.16,7.42c0.05-0.01,1.12-0.79,1.17-0.8
			c0.05-0.01,0.09-0.03,0.13-0.04c1.48-0.52,2.23-1.8,2.24-3.86c0.01-1.61-0.55-3.05-1.65-4.31c-0.43-0.47-1.01-1.01-1.73-1.59
			c-0.79-0.59-1.18-0.89-1.97-1.49c-0.81-0.6-1.47-1.13-1.97-1.59c-0.69-0.64-1.25-1.29-1.71-1.95c-0.26-0.39-0.49-0.79-0.69-1.21
			c-0.03-0.07-0.06-0.13-0.09-0.19c-0.08-0.17-0.15-0.35-0.21-0.53c-0.11-0.26-0.19-0.53-0.27-0.79c-0.06-0.23-0.11-0.46-0.17-0.7
			c-0.05-0.22-0.09-0.45-0.11-0.68c-0.01-0.05-0.02-0.11-0.02-0.17c-0.04-0.23-0.06-0.47-0.07-0.73c-0.02-0.26-0.03-0.52-0.03-0.8
			v-0.11c0.03-5.99,2.74-9.58,8.17-10.61c0.78-0.15,1.5-0.22,2.17-0.22c0.19,0,0.38,0.01,0.57,0.02c0.11,0.01,0.21,0.01,0.31,0.03
			c0.23,0.02,0.45,0.05,0.67,0.11c0.1,0.02,0.2,0.04,0.29,0.06c0.02,0.01,0.05,0.01,0.07,0.02c0.11,0.03,0.21,0.06,0.31,0.11
			c0.09,0.02,0.17,0.05,0.24,0.09c0.07,0.02,0.13,0.05,0.19,0.08c0.13,0.06,0.26,0.12,0.38,0.19c0.05,0.03,0.1,0.05,0.14,0.08
			c0.1,0.05,0.19,0.13,0.29,0.19c0.09,0.06,0.17,0.13,0.25,0.19c0.1,0.08,0.19,0.16,0.28,0.25c0.05,0.05,0.09,0.09,0.13,0.13
			c0.05,0.05,0.09,0.1,0.13,0.15c0.13,0.14,0.23,0.28,0.35,0.44c0.11,0.15,0.21,0.32,0.3,0.49c0.03,0.05,0.07,0.12,0.09,0.17
			c0.1,0.2,0.19,0.41,0.27,0.62c0.07,0.15,0.12,0.31,0.17,0.47c0.01,0.03,0.02,0.06,0.03,0.09l2.87,7.66
			c0.01-4.3,0.03-8.59,0.05-12.89c2.21-0.36,3.32-0.53,5.53-0.85l4.92,15.15c0.85-5.39,1.7-10.79,2.55-16.18
			c3.26-0.41,4.88-0.6,8.14-0.95l7.41,33.66c0.01-9.86,0.04-24.51,0.05-34.37c3.29-0.27,4.93-0.4,8.21-0.61
			c0.65-0.04,1.27-0.04,1.85,0.01c0.05,0,0.11,0.01,0.17,0.01c0.07,0.01,0.15,0.01,0.23,0.03c0.06,0,0.11,0.01,0.16,0.03
			c0.06,0.01,0.13,0.01,0.19,0.03c0.06,0.01,0.12,0.01,0.17,0.03c0.15,0.03,0.29,0.05,0.43,0.09c0.09,0.02,0.17,0.05,0.25,0.07
			c0.44,0.11,0.85,0.27,1.24,0.46c0.09,0.05,0.17,0.09,0.25,0.14c0.11,0.06,0.23,0.13,0.33,0.2c0.11,0.07,0.22,0.14,0.32,0.21
			c0.11,0.07,0.2,0.16,0.3,0.24c0.09,0.09,0.19,0.17,0.28,0.27c0.07,0.07,0.14,0.13,0.21,0.21c0.07,0.07,0.14,0.15,0.2,0.23
			c0.07,0.08,0.13,0.16,0.19,0.24c0.25,0.33,0.47,0.7,0.65,1.1c0.05,0.11,0.09,0.21,0.14,0.33c0.04,0.1,0.08,0.2,0.11,0.31
			c0.08,0.21,0.15,0.42,0.21,0.64c0.07,0.22,0.12,0.45,0.17,0.69c0.01,0.03,0.01,0.05,0.01,0.08c0.02,0.13,0.05,0.25,0.07,0.37
			c0.03,0.17,0.05,0.33,0.07,0.5l4.18,23.15l4.84-30.37c2.23-0.05,3.34-0.06,5.57-0.07c-0.01,6.51-0.01,3.4-0.01,9.9
			c0,0,7.77-9.73,7.77-9.86c2.04,0.03,3.07,0.05,5.1,0.11c-0.03,0.05-0.05,0.11-0.07,0.17c-3.03,6.16-4.56,9.3-7.62,15.57
			c0.88,2.27,2.17,5.59,2.49,6.44l6.97-22.13c6.08,0.21,9.12,0.37,15.19,0.81c0,2.05-0.03,1.43-0.03,3.48l2.71-3.27
			c3.36,0.27,5.04,0.43,8.4,0.77c5.49,0.56,8.25,3.67,8.26,9.15c0,1.13,0.01,1.69,0.01,2.82v0.08c0,0.22-0.01,0.43-0.01,0.64
			c-0.01,0.17-0.01,0.33-0.03,0.48c-0.01,0.13-0.03,0.25-0.04,0.38c-0.04,0.32-0.09,0.61-0.14,0.91c-0.03,0.14-0.05,0.28-0.1,0.42
			c-0.07,0.27-0.16,0.53-0.25,0.78c-0.01,0.05-0.04,0.1-0.06,0.15c-0.02,0.05-0.05,0.09-0.07,0.15c-0.02,0.05-0.04,0.09-0.06,0.14
			c-0.02,0.06-0.05,0.1-0.06,0.15c-0.02,0.06-0.05,0.1-0.07,0.15c-0.01,0.02-0.02,0.04-0.03,0.06c-0.61,1.13-1.51,1.91-2.72,2.35
			c0.49,0.26,0.94,0.58,1.33,0.96c-0.01,0-0.01,0.01-0.01,0.01c0.21,0.2,0.41,0.41,0.6,0.65c0.06,0.07,1.49,3.81,1.55,3.9
			l6.63-22.54c2.21,0.31,3.32,0.48,5.53,0.83c0.02,5.31,0.04,18.07,0.05,23.37l7.12-22.18c3.25,0.57,4.86,0.87,8.09,1.51
			C218.02,180.59,219.94,192.89,221.86,205.2"/>
		<path class="st19" d="M77.6,176.77c0-0.75,0-1.13,0.01-1.89c0.01-1.45-0.15-2.7-0.46-3.75c-0.01-0.03-0.02-0.06-0.03-0.1
			c-0.05-0.16-0.1-0.32-0.17-0.47c-0.08-0.21-0.17-0.42-0.28-0.62c-0.03-0.06-0.06-0.12-0.09-0.17c-0.1-0.17-0.19-0.34-0.3-0.49
			c-0.11-0.16-0.22-0.3-0.35-0.44c-0.04-0.05-0.08-0.1-0.13-0.14c-0.04-0.05-0.08-0.09-0.13-0.13c-0.09-0.09-0.18-0.17-0.28-0.25
			c-0.08-0.07-0.16-0.13-0.25-0.19c-0.1-0.07-0.19-0.14-0.29-0.19c-0.04-0.03-0.09-0.06-0.14-0.08c-0.12-0.07-0.25-0.13-0.38-0.19
			c-0.07-0.03-0.12-0.06-0.19-0.08c-0.08-0.04-0.16-0.07-0.24-0.09c-0.1-0.04-0.21-0.08-0.31-0.1c-0.02-0.01-0.05-0.01-0.07-0.02
			c-0.1-0.02-0.19-0.04-0.3-0.06c-0.21-0.06-0.44-0.09-0.67-0.11c-0.1-0.01-0.21-0.02-0.31-0.03c-0.19-0.01-0.37-0.02-0.57-0.02
			c-0.67,0-1.39,0.07-2.17,0.22c-5.43,1.03-8.14,4.62-8.16,10.61v0.11c0,0.28,0.01,0.54,0.03,0.8c0.01,0.25,0.03,0.49,0.07,0.73
			c0,0.05,0.01,0.12,0.02,0.17c0.03,0.23,0.07,0.46,0.12,0.68c0.05,0.24,0.1,0.47,0.17,0.7c0.08,0.27,0.16,0.54,0.26,0.8
			c0.06,0.18,0.13,0.36,0.21,0.53c0.03,0.07,0.06,0.13,0.09,0.19c0.19,0.42,0.42,0.82,0.68,1.21c0.46,0.66,1.02,1.31,1.71,1.94
			c0.5,0.46,1.16,1,1.97,1.6c0.79,0.59,1.19,0.89,1.98,1.49c0.72,0.58,1.3,1.11,1.74,1.59c1.11,1.26,1.66,2.7,1.65,4.31
			c-0.01,2.06-0.76,3.34-2.24,3.86c-0.04,0.02-0.08,0.03-0.13,0.04c-0.15,0.05-0.32,0.09-0.49,0.12c-1.91,0.37-2.87-0.6-2.85-2.93
			c0.01-1.47,0.01-2.23,0.01-3.65v-0.17c-2.09,0.42-3.13,0.63-5.21,1.07c-0.01,1.38-0.01,2.08-0.02,3.46v0.09
			c0,0.55,0.02,1.06,0.07,1.54c0.02,0.26,0.06,0.51,0.1,0.75c0.04,0.22,0.08,0.44,0.12,0.64c0.05,0.21,0.1,0.42,0.16,0.62
			c0.06,0.2,0.12,0.39,0.2,0.58c0.14,0.37,0.3,0.7,0.5,1.01c0,0.01,0.01,0.02,0.01,0.03c1.28,2.04,3.63,2.71,7.04,2.06
			c5.5-1.04,8.27-4.47,8.29-10.46c0.01-2.3-0.55-4.28-1.67-5.95c-0.46-0.68-1.04-1.35-1.73-2.01c-0.49-0.48-1.14-1.03-1.96-1.64
			c-0.15-0.1-0.32-0.23-0.52-0.38c-0.58-0.45-0.88-0.67-1.46-1.12c-0.71-0.57-1.29-1.09-1.73-1.57c-1.12-1.26-1.68-2.7-1.67-4.31
			c0.01-2.34,0.94-3.71,2.79-4.06c1.85-0.35,2.76,0.66,2.75,3.01c0,0.9,0,1.35-0.01,2.25C74.46,177.31,75.5,177.13,77.6,176.77"/>
		<path class="st19" d="M80.05,165.9c2.21-0.36,3.32-0.53,5.53-0.85c-0.04,11.92-0.08,23.84-0.12,35.77
			c-2.22,0.33-3.33,0.5-5.54,0.85L80.05,165.9z"/>
		<path class="st19" d="M106.77,198.29c-2.25,0.2-3.37,0.31-5.62,0.55c-0.38-2.55-0.57-3.83-0.95-6.38
			c-2.73,0.29-4.09,0.45-6.82,0.8c-0.39,2.64-0.59,3.96-0.98,6.61c-2.04,0.26-3.07,0.4-5.11,0.69c1.92-12.18,3.84-24.35,5.76-36.53
			c3.25-0.41,4.88-0.6,8.14-0.94C103.05,174.82,104.91,186.56,106.77,198.29 M94.09,188.31c2.15-0.27,3.23-0.39,5.38-0.63
			c-1.06-7.12-1.59-10.67-2.64-17.78C95.73,177.26,95.19,180.94,94.09,188.31"/>
		<path class="st19" d="M116.86,161.76c5.54-0.36,8.31,2.51,8.3,8.41c0,1.86,0,2.78,0,4.64c-0.01,5.89-2.79,8.92-8.33,9.27
			c-1.06,0.07-1.59,0.1-2.65,0.18c-0.01,5.38-0.01,8.07-0.02,13.44c-2.23,0.16-3.34,0.25-5.57,0.44
			c0.02-11.92,0.05-23.84,0.07-35.76C111.93,162.09,113.57,161.97,116.86,161.76 M114.2,167.05c-0.01,4.85-0.01,7.27-0.02,12.12
			c1.06-0.08,1.59-0.11,2.65-0.18c1.82-0.12,2.72-1.3,2.73-3.56c0-2.15,0-3.22,0.01-5.36c0-2.24-0.9-3.32-2.72-3.2
			C115.79,166.94,115.26,166.97,114.2,167.05"/>
		<path class="st19" d="M148.43,186.22c-0.32-0.85-0.65-1.69-0.98-2.54c-0.87-2.27-1.75-4.55-2.63-6.82
			c3.05-6.27,4.59-9.41,7.62-15.57c0.02-0.06,0.05-0.11,0.08-0.17c-2.04-0.06-3.06-0.08-5.1-0.11c-3.1,6.46-4.66,9.7-7.78,16.22
			c0-6.5,0-9.75,0.01-16.26c-2.23,0.01-3.35,0.02-5.57,0.07v0.16c-0.01,11.86-0.01,23.73-0.02,35.6c2.23-0.04,3.35-0.06,5.59-0.07
			v-11.5c0.68-1.19,1.02-1.78,1.69-2.97c2.19,5.79,3.29,8.68,5.48,14.5c2.29,0.03,3.44,0.06,5.73,0.12
			C151.17,193.33,149.81,189.78,148.43,186.22"/>
		<path class="st19" d="M159.87,176.49c3.07,0.15,4.61,0.24,7.68,0.44c0,2.04,0,3.05,0.01,5.09c-3.07-0.21-4.61-0.3-7.68-0.44
			c0,4.19,0.01,6.28,0.01,10.47c3.86,0.18,5.79,0.3,9.64,0.58c0,2.04,0.01,3.07,0.01,5.11c-6.08-0.44-9.13-0.61-15.22-0.81
			l-0.03-35.76c6.08,0.2,9.12,0.36,15.19,0.81c0,2.04,0.01,3.07,0.01,5.11c-3.85-0.28-5.77-0.4-9.62-0.58
			C159.86,170.51,159.86,172.51,159.87,176.49"/>
		<path class="st19" d="M188.92,195.32c-0.01-2.2-0.01-3.3-0.02-5.51c-0.01-2.65-0.54-4.72-1.61-6.2c-0.23-0.32-0.49-0.62-0.77-0.88
			c-0.39-0.38-0.84-0.7-1.33-0.96c1.21-0.44,2.12-1.22,2.72-2.34c0.01-0.02,0.02-0.04,0.03-0.06c0.24-0.45,0.43-0.95,0.56-1.51
			c0.04-0.14,0.07-0.28,0.1-0.42c0.06-0.29,0.11-0.59,0.14-0.91c0.01-0.12,0.03-0.25,0.04-0.38c0.01-0.15,0.02-0.31,0.03-0.48
			c0.01-0.21,0.01-0.42,0.01-0.64v-0.08c0-1.13-0.01-1.69-0.01-2.82c-0.01-5.49-2.76-8.6-8.26-9.16c-3.36-0.35-5.04-0.5-8.4-0.77
			v0.17c0.02,11.86,0.04,23.73,0.06,35.59c2.23,0.18,3.35,0.28,5.57,0.49c-0.01-5.83-0.01-8.74-0.03-14.56
			c0.77,0.07,1.15,0.11,1.93,0.19c2.43,0.24,3.66,1.9,3.67,4.95c0,2.24,0.01,3.37,0.01,5.61c0,1.31,0.03,2.32,0.13,2.96
			c0.06,0.4,0.19,0.91,0.37,1.49c2.26,0.26,3.39,0.39,5.65,0.67C189.13,198.72,188.93,197.25,188.92,195.32 M179.92,179
			c-0.87-0.08-1.31-0.12-2.18-0.21c-0.01-4.4-0.01-6.6-0.02-11c1.07,0.1,1.61,0.15,2.69,0.26c1.89,0.19,2.84,1.53,2.85,3.99
			c0.01,1.41,0.01,2.12,0.01,3.52C183.27,178.1,182.16,179.23,179.92,179"/>
		<path class="st19" d="M190.28,194.72c0.26,0.07,0.58,0.12,0.96,0.17c0.38,0.05,0.58,0.07,0.96,0.13c2.12,0.28,3.18-0.7,3.17-2.98
			c-0.03-9.1-0.06-18.19-0.09-27.29c2.22,0.31,3.32,0.48,5.54,0.82c0.03,8.96,0.06,17.93,0.1,26.89c0.01,3.29-0.79,5.55-2.39,6.79
			c-1.31,1.01-3.16,1.35-5.54,1.03c-1.18-0.16-2.08-0.31-2.69-0.45C190.29,197.79,190.29,196.77,190.28,194.72"/>
		<path class="st19" d="M221.86,205.2c-2.22-0.47-3.34-0.7-5.56-1.14c-0.39-2.67-0.59-4-0.99-6.67c-2.71-0.53-4.06-0.78-6.78-1.26
			c-0.37,2.53-0.56,3.79-0.93,6.32c-2.04-0.35-3.06-0.52-5.09-0.85c1.83-11.61,3.66-23.22,5.49-34.83c3.24,0.57,4.86,0.87,8.09,1.51
			C218.01,180.58,219.94,192.89,221.86,205.2 M209.21,191.38c2.14,0.38,3.21,0.58,5.35,0.99c-1.1-7.44-1.65-11.16-2.75-18.59
			C210.77,180.82,210.25,184.34,209.21,191.38"/>
		<path class="st18" d="M228.61,161.21v64.15c-2.71-1.06-5.57-2.07-8.56-3.02c-2.65-0.85-5.4-1.65-8.25-2.41
			c-19.61-5.23-43.85-8.31-70.07-8.31c-26.23,0-50.46,3.09-70.07,8.31c-2.85,0.76-5.6,1.56-8.25,2.41
			c-2.97,0.94-5.79,1.95-8.49,2.99v-64.15c21.61-8.44,52.5-13.72,86.81-13.72C176.07,147.47,207,152.76,228.61,161.21z"/>
	</g>
</g>
</svg>
