<svg width="64" height="64" viewBox="0 0 64 64" fill="none" xmlns="http://www.w3.org/2000/svg">
<path d="M11.1075 6.6875V57.3125C11.1075 61 14.1038 64 17.7863 64H46.245C49.9275 64 52.9238 61 52.9238 57.3125V6.6875C52.9238 3 49.9275 0 46.245 0H17.7863C14.1038 0 11.1075 3 11.1075 6.6875Z" fill="#747474"/>
<path d="M11.1075 6.6875V57.3125C11.1075 61 14.1037 64 17.7863 64H20.2863C16.6038 64 13.6075 61 13.6075 57.3125V6.6875C13.6075 3 16.6038 0 20.2863 0H17.7863C14.1037 0 11.1075 3 11.1075 6.6875Z" fill="#868686"/>
<path d="M14.8525 6.5325V57.4675C14.8525 59.105 16.1825 60.4375 17.8188 60.4375H46.2125C47.8488 60.4375 49.1788 59.105 49.1788 57.4675V6.5325C49.1788 4.895 47.8488 3.5625 46.2125 3.5625H43.2488C42.8425 3.5625 42.4813 3.825 42.3563 4.2125L41.6225 6.49125C41.44 7.0575 40.92 7.4375 40.3263 7.4375H23.705C23.1125 7.4375 22.5913 7.0575 22.4088 6.49125L21.675 4.2125C21.55 3.825 21.19 3.5625 20.7825 3.5625H17.8188C16.1825 3.5625 14.8525 4.895 14.8525 6.5325Z" fill="#DAE7EF"/>
<path d="M14.8525 6.5325V57.4675C14.8525 59.105 16.1825 60.4375 17.8188 60.4375H20.3188C18.6825 60.4375 17.3525 59.105 17.3525 57.4675V6.5325C17.3525 4.895 18.6825 3.5625 20.3188 3.5625H17.8188C16.1825 3.5625 14.8525 4.895 14.8525 6.5325Z" fill="#CFDFE9"/>
<path d="M26.9389 2.74814H37.0927C37.6105 2.74814 38.0302 3.16789 38.0302 3.68564C38.0302 4.20339 37.6105 4.62314 37.0927 4.62314H26.9389C26.4211 4.62314 26.0014 4.20339 26.0014 3.68564C26.0014 3.16789 26.4211 2.74814 26.9389 2.74814Z" fill="#415E6F"/>
<path d="M37.0071 30.1671H39.6791C40.1969 30.1671 40.6166 30.5869 40.6166 31.1046C40.6166 31.6224 40.1969 32.0421 39.6791 32.0421H37.0071C36.4894 32.0421 36.0696 31.6224 36.0696 31.1046C36.0696 30.5869 36.4894 30.1671 37.0071 30.1671Z" fill="#56788B"/>
<path d="M34.6884 33.2537C35.2062 33.2537 35.6259 33.6735 35.6259 34.1912V38.7079C35.6259 39.2256 35.2062 39.6454 34.6884 39.6454C34.1707 39.6454 33.7509 39.2256 33.7509 38.7079V34.1912C33.7509 33.6735 34.1707 33.2537 34.6884 33.2537Z" fill="#56788B"/>
<path d="M35.8694 27.231C37.0525 27.3902 37.9447 28.4114 37.9447 29.6061V32.603C37.9447 33.7977 37.0525 34.8189 35.8694 34.9781L25.5373 36.4416V25.8559L35.8694 27.231Z" fill="#FFC709"/>
<path d="M24.415 26.7296V35.4796C24.415 36.5151 25.2532 37.3546 26.2872 37.3546C27.3212 37.3546 28.1595 36.5151 28.1595 35.4796V26.7296C28.1595 25.6941 27.3212 24.8546 26.2872 24.8546C25.2532 24.8546 24.415 25.6941 24.415 26.7296Z" fill="#56788B"/>
<path d="M42.5312 15.0875V24.54C42.5312 26.12 43.8162 27.4063 45.395 27.4063H57.5525L62.495 31.1663C62.6612 31.2938 62.8613 31.3575 63.0625 31.3575C63.205 31.3575 63.3475 31.3263 63.4787 31.26C63.7975 31.1025 64 30.7763 64 30.42V15.0875C64 13.5075 62.715 12.2213 61.1363 12.2213H45.395C43.8162 12.2213 42.5312 13.5075 42.5312 15.0875Z" fill="#FFC709"/>
<path d="M42.5312 15.0875V24.54C42.5312 26.12 43.8162 27.4063 45.395 27.4063H47.895C46.3162 27.4063 45.0312 26.12 45.0312 24.54V15.0875C45.0312 13.5075 46.3162 12.2213 47.895 12.2213H45.395C43.8162 12.2213 42.5312 13.5075 42.5312 15.0875Z" fill="#FFC709"/>
<path d="M48.2731 16.6805H58.2582C58.776 16.6805 59.1957 17.1002 59.1957 17.618C59.1957 18.1358 58.776 18.5555 58.2582 18.5555H48.2731C47.7553 18.5555 47.3356 18.1358 47.3356 17.618C47.3356 17.1002 47.7552 16.6805 48.2731 16.6805Z" fill="white"/>
<path d="M49.5211 20.9305H58.2582C58.776 20.9305 59.1957 21.3502 59.1957 21.868C59.1957 22.3857 58.776 22.8055 58.2582 22.8055H49.5212C49.0035 22.8055 48.5837 22.3857 48.5837 21.868C48.5837 21.3502 49.0033 20.9305 49.5211 20.9305Z" fill="white"/>
<path d="M-3.05176e-05 45.7125C-3.05176e-05 47.9413 1.81122 49.755 4.03747 49.755H17.8462L19.9562 52.6675C20.1325 52.9113 20.415 53.055 20.715 53.055C21.0162 53.055 21.2987 52.9113 21.475 52.6675L23.585 49.755H23.9362C26.1625 49.755 27.9737 47.9413 27.9737 45.7125C27.9737 43.4838 26.1625 41.6713 23.9362 41.6713H4.03747C1.81122 41.6713 -3.05176e-05 43.4838 -3.05176e-05 45.7125Z" fill="#FFC709"/>
<path d="M1.14441e-05 45.7125C1.14441e-05 47.9413 1.81126 49.755 4.03751 49.755H6.53751C4.31126 49.755 2.50001 47.9413 2.50001 45.7125C2.50001 43.4838 4.31126 41.6713 6.53751 41.6713H4.03751C1.81126 41.6713 1.14441e-05 43.4838 1.14441e-05 45.7125Z" fill="#FFC709"/>
<path d="M42.6601 46.175H38.6422C38.1245 46.175 37.7047 45.7553 37.7047 45.2375C37.7047 44.7198 38.1245 44.3 38.6422 44.3H42.6601C43.1778 44.3 43.5976 44.7198 43.5976 45.2375C43.5976 45.7553 43.1778 46.175 42.6601 46.175Z" fill="#90ABBD"/>
<path d="M36.1458 48.675H42.66C43.1777 48.675 43.5975 49.0948 43.5975 49.6125C43.5975 50.1303 43.1777 50.55 42.66 50.55H36.1458C35.6281 50.55 35.2083 50.1303 35.2083 49.6125C35.2083 49.0948 35.6281 48.675 36.1458 48.675Z" fill="#90ABBD"/>
<path d="M21.4071 17.3787H25.425C25.9427 17.3787 26.3625 17.7985 26.3625 18.3162C26.3625 18.834 25.9427 19.2537 25.425 19.2537H21.4071C20.8894 19.2537 20.4696 18.834 20.4696 18.3162C20.4696 17.7985 20.8894 17.3787 21.4071 17.3787Z" fill="#90ABBD"/>
<path d="M20.4696 13.9412C20.4696 13.4235 20.8894 13.0037 21.4071 13.0037H27.9213C28.439 13.0037 28.8588 13.4235 28.8588 13.9412C28.8588 14.459 28.439 14.8787 27.9213 14.8787H21.4071C20.8894 14.8787 20.4696 14.459 20.4696 13.9412Z" fill="#90ABBD"/>
<path d="M6.48081 45H22.5192C23.337 45 24 45.4186 24 45.935C24 46.4514 23.337 46.87 22.5192 46.87H6.48081C5.66301 46.87 5 46.4514 5 45.935C5 45.4186 5.66301 45 6.48081 45Z" fill="#FAFAFA"/>
</svg>