<svg width="80" height="68" viewBox="0 0 80 68" fill="none" xmlns="http://www.w3.org/2000/svg">
<path d="M39.872 40.4084C39.5897 40.4154 39.3318 40.4188 39.1028 40.4206C39.1046 40.1916 39.108 39.9337 39.115 39.6514C39.1411 38.6789 38.124 38.0106 37.2348 38.4355C37.1955 38.4547 33.2138 40.3096 26.7942 39.0255C25.9841 38.8635 25.226 39.4837 25.226 40.3113C25.226 43.0779 26.1325 45.5072 27.7129 46.9748C29.3758 48.5189 31.0032 50.1462 32.5486 51.8105C34.0162 53.3909 36.4455 54.2974 39.2121 54.2974C40.0427 54.2974 40.6593 53.536 40.4979 52.7292C39.2138 46.3096 41.0687 42.3279 41.088 42.2895C41.5154 41.4007 40.8479 40.3804 39.872 40.4084Z" fill="#B4B4B4"/>
<path d="M41.0881 42.2895C41.0689 42.328 39.214 46.3096 40.4981 52.7292C40.6597 53.5375 40.0415 54.2974 39.2122 54.2974C36.4456 54.2974 34.0164 53.391 32.5487 51.8105C31.7769 50.9792 30.9832 50.1558 30.1755 49.3481L39.103 40.4206C39.332 40.4189 39.5898 40.4154 39.8722 40.4084C40.8465 40.3804 41.5163 41.3991 41.0881 42.2895Z" fill="#A5A5A5"/>
<path d="M46.4918 48.6865C46.4045 48.5433 44.35 45.1367 44.0854 41.3011C44.0387 40.624 44.5165 40.0231 45.1867 39.916C49.8244 39.1754 53.6536 37.7339 56.5679 35.6317C57.4336 35.0071 58.6461 35.6273 58.6461 36.695C58.6461 38.4957 58.242 40.4199 57.4776 42.2594C55.3186 47.4526 48.2177 49.2067 47.9165 49.2788C47.3669 49.4104 46.7899 49.1751 46.4918 48.6865Z" fill="#F2C324"/>
<path d="M40.2612 34.8038C38.9218 33.0181 34.5042 33.065 33.062 33.2225C32.2833 33.3066 31.6073 32.6968 31.6073 31.9191C31.6073 31.7633 31.6176 28.0553 32.514 24.1111C33.4631 19.9353 35.4424 15.3919 39.6544 14.5494C43.7843 13.7236 46.2454 14.9169 47.583 16.0634C49.0633 17.3322 49.5171 18.8075 49.5639 18.9715C49.6831 19.3886 49.5882 19.8378 49.3105 20.1711C42.5093 28.3326 44.0394 30.7246 42.5276 34.5041C42.1481 35.4525 40.8741 35.621 40.2612 34.8038ZM47.0466 19.7062H47.0475H47.0466Z" fill="#ECB80A"/>
<path d="M60.4262 35.7869C56.5406 39.6722 51.0274 41.6387 45.6006 42.5056C43.1305 42.8985 40.3037 43.1134 37.7412 43.0196C37.0718 42.9809 36.5427 42.4489 36.5042 41.7827C36.5025 41.7486 36.4579 40.9251 36.4946 39.5816C36.6875 32.383 38.6434 24.1929 43.7369 19.0977C52.0473 10.7872 65.526 7.49518 68.6799 10.8439C72.0154 14.3154 68.6935 27.5176 60.4262 35.7869Z" fill="#9A9A9A"/>
<path d="M60.4257 35.7863C56.5402 39.6716 51.0271 41.638 45.6005 42.5049C43.1304 42.8978 40.3037 43.1126 37.7412 43.0189C37.4081 42.9996 37.1074 42.858 36.8871 42.636L68.6792 10.8439C72.0147 14.3153 68.6928 27.5172 60.4257 35.7863Z" fill="#888888"/>
<path d="M68.6795 10.8439C67.2013 9.27392 63.9679 9.4435 61.8368 9.76518C58.4968 10.2704 54.8709 11.5895 51.8884 13.1673C51.8884 13.1673 52.176 17.5677 57.0483 22.4392C61.9199 27.3116 66.3692 27.6402 66.3692 27.6402C68.5344 23.5301 69.6568 19.4698 69.9059 16.4715C70.058 14.6376 69.9662 12.183 68.6795 10.8439Z" fill="#B4B4B4"/>
<path d="M69.906 16.4715C69.6569 19.4706 68.5345 23.5301 66.3693 27.6403C66.3693 27.6403 61.9314 27.3125 57.0668 22.4567L68.6796 10.8439C69.9663 12.183 70.0581 14.6376 69.906 16.4715Z" fill="#A5A5A5"/>
<path d="M60.8912 17.8457C59.7534 17.8457 59.1277 16.4695 59.9638 15.6071C60.5555 15.0326 61.4437 15.1355 61.9052 15.7033C62.6036 16.559 61.9954 17.8457 60.8912 17.8457Z" fill="#ECB80A"/>
<path d="M19.0188 26.3123C14.8322 23.6607 8.05046 24.7649 3.31481 25.8267C2.82393 25.9368 2.51519 26.424 2.62525 26.9149C3.68743 31.6522 5.58442 38.2562 9.76969 40.91C11.6951 41.9795 13.961 42.2582 16.0882 41.6871C18.3219 41.2779 20.3212 40.047 21.6924 38.2368C23.6682 35.1164 22.7096 28.6513 19.0188 26.3123Z" fill="#4CAF50"/>
<path d="M41.4727 20.9642C36.7353 22.0264 30.1314 23.9234 27.4776 28.1087C25.1331 31.8083 27.0319 38.0534 30.1508 40.0314C32.1641 41.0829 34.4983 41.3423 36.6933 40.7582C38.8606 40.3663 40.7906 39.1469 42.0752 37.3578C44.7285 33.1708 43.6226 26.3895 42.5604 21.652C42.4496 21.1621 41.963 20.8543 41.4727 20.9642Z" fill="#4CAF50"/>
<path d="M29.0427 57.442C28.5505 57.5523 28.062 57.2429 27.9517 56.7508C23.7145 37.8526 15.7195 34.6648 12.7101 33.4661C12.3504 33.3358 12.0017 33.1767 11.6675 32.9906C11.2462 32.7133 11.1295 32.147 11.4069 31.7258C11.6775 31.3148 12.225 31.192 12.6452 31.4481C12.8846 31.5731 13.1327 31.6808 13.3876 31.7702C16.0598 32.8348 22.3547 35.3445 26.9879 47.1672C27.0111 40.4378 30.13 34.0931 35.4447 29.9633C35.8518 29.6473 36.4333 29.697 36.7807 30.0775C37.0952 30.4241 37.0691 30.9599 36.7224 31.2745C36.7094 31.2862 36.696 31.2977 36.6823 31.3086L36.5531 31.4087C27.8116 38.1918 28.0167 48.7166 29.7287 56.3524C29.8387 56.8423 29.5321 57.3291 29.0427 57.442Z" fill="#388E3C"/>
</svg>