<svg width="20" height="16" viewBox="0 0 20 16" fill="none" xmlns="http://www.w3.org/2000/svg">
<rect width="18.1815" height="13.6361" rx="2" fill="#5A5A5A"/>
<rect x="0.908997" y="0.90918" width="16.3634" height="11.818" rx="1" fill="#FFC709"/>
<mask id="mask0" mask-type="alpha" maskUnits="userSpaceOnUse" x="0" y="0" width="18" height="13">
<rect x="0.908997" y="0.90918" width="16.3634" height="11.818" rx="1" fill="#3C77BF"/>
</mask>
<g mask="url(#mask0)">
<path d="M22.7267 1.74543L-1.07453 14.5452L-10 0L22.7267 1.74543Z" fill="#FFDF74"/>
<path d="M20.9086 0.727645L-1.57039 12.7274L-10 -0.908691L20.9086 0.727645Z" fill="#FFD546"/>
<path d="M19.0905 0.000332594L0.908951 10.0002L-5.90912 -1.36328L19.0905 0.000332594Z" fill="#FFC709"/>
</g>
<rect x="5.45349" y="7.27246" width="0.909076" height="0.909076" fill="#5A5A5A"/>
<rect x="5.45349" y="9.09082" width="0.909076" height="0.909076" fill="#5A5A5A"/>
<rect x="5.45349" y="5.45459" width="0.909076" height="0.909076" fill="#5A5A5A"/>
<rect x="5.45349" y="3.63623" width="0.909076" height="0.909076" fill="#5A5A5A"/>
<circle cx="5.90866" cy="1.36361" r="1.36361" fill="#6A6A6A"/>
<circle cx="5.90866" cy="12.2718" r="1.36361" fill="#6A6A6A"/>
<circle cx="15.9091" cy="11.3633" r="4.09084" fill="#D6D6D6"/>
<path d="M17.1123 10.952L15.7963 12.268C15.7748 12.2895 15.7493 12.3066 15.7211 12.3183C15.693 12.3299 15.6629 12.3359 15.6324 12.3359C15.602 12.3359 15.5718 12.3299 15.5437 12.3183C15.5156 12.3066 15.49 12.2895 15.4685 12.268L14.8105 11.61C14.789 11.5884 14.7719 11.5629 14.7603 11.5348C14.7486 11.5066 14.7426 11.4765 14.7426 11.446C14.7426 11.4156 14.7486 11.3855 14.7603 11.3573C14.7719 11.3292 14.789 11.3037 14.8105 11.2821C14.832 11.2606 14.8576 11.2435 14.8857 11.2319C14.9138 11.2202 14.944 11.2142 14.9744 11.2142C15.0049 11.2142 15.035 11.2202 15.0631 11.2319C15.0913 11.2435 15.1168 11.2606 15.1383 11.2821L15.6312 11.775L16.7821 10.6241C16.8037 10.6026 16.8292 10.5855 16.8573 10.5738C16.8855 10.5622 16.9156 10.5561 16.9461 10.5561C16.9765 10.5561 17.0067 10.5622 17.0348 10.5738C17.0629 10.5855 17.0885 10.6026 17.11 10.6241C17.203 10.7148 17.203 10.8613 17.1123 10.952ZM14.1014 11.3635C14.1014 10.8218 14.3385 10.3358 14.7105 9.99638L15.0663 10.3521C15.0826 10.3682 15.1034 10.379 15.126 10.3833C15.1485 10.3876 15.1718 10.3851 15.193 10.3761C15.2141 10.3672 15.2321 10.3522 15.2447 10.333C15.2574 10.3138 15.264 10.2914 15.2639 10.2684V9.27096C15.2639 9.20586 15.2127 9.15471 15.1476 9.15471H14.1502C14.0456 9.15471 13.9944 9.28026 14.0688 9.35234L14.3804 9.66622C13.9247 10.0894 13.6364 10.6916 13.6364 11.3635C13.6364 12.4679 14.4083 13.3933 15.4406 13.6304C15.5871 13.663 15.7289 13.5537 15.7289 13.4026C15.7289 13.2933 15.6522 13.2003 15.5452 13.1747C14.7198 12.9864 14.1014 12.247 14.1014 11.3635ZM18.2865 11.3635C18.2865 10.2591 17.5145 9.33374 16.4822 9.09658C16.3357 9.06403 16.1939 9.17331 16.1939 9.32444C16.1939 9.43372 16.2706 9.52672 16.3776 9.55229C17.203 9.74062 17.8214 10.48 17.8214 11.3635C17.8214 11.9052 17.5843 12.3912 17.2123 12.7306L16.8565 12.3749C16.8402 12.3588 16.8194 12.348 16.7968 12.3437C16.7743 12.3394 16.751 12.3419 16.7298 12.3509C16.7087 12.3598 16.6907 12.3748 16.6781 12.394C16.6654 12.4132 16.6588 12.4357 16.6589 12.4586V13.4561C16.6589 13.5212 16.7101 13.5723 16.7752 13.5723H17.7726C17.8772 13.5723 17.9284 13.4468 17.854 13.3747L17.5424 13.0608C17.9981 12.6376 18.2865 12.0354 18.2865 11.3635Z" fill="white"/>
</svg>
